<?xml version="1.0" encoding="UTF-8" standalone="no"?>
<svg
   xmlns:dc="http://purl.org/dc/elements/1.1/"
   xmlns:cc="http://creativecommons.org/ns#"
   xmlns:rdf="http://www.w3.org/1999/02/22-rdf-syntax-ns#"
   xmlns:svg="http://www.w3.org/2000/svg"
   xmlns="http://www.w3.org/2000/svg"
   xmlns:sodipodi="http://sodipodi.sourceforge.net/DTD/sodipodi-0.dtd"
   xmlns:inkscape="http://www.inkscape.org/namespaces/inkscape"
   inkscape:version="1.0 (4035a4fb49, 2020-05-01)"
   sodipodi:docname="Warszawa_undefined_colors.svg"
   id="svg2"
   height="1050"
   width="990"
   version="1.0">
  <metadata
     id="metadata86">
    <rdf:RDF>
      <cc:Work
         rdf:about="">
        <dc:format>image/svg+xml</dc:format>
        <dc:type
           rdf:resource="http://purl.org/dc/dcmitype/StillImage" />
        <dc:title></dc:title>
      </cc:Work>
    </rdf:RDF>
  </metadata>
  <sodipodi:namedview
     inkscape:current-layer="svg2"
     inkscape:window-maximized="1"
     inkscape:window-y="-11"
     inkscape:window-x="1909"
     inkscape:cy="498.35869"
     inkscape:cx="523.35203"
     inkscape:zoom="1.5504762"
     showgrid="false"
     id="namedview84"
     inkscape:window-height="2080"
     inkscape:window-width="3840"
     inkscape:pageshadow="2"
     inkscape:pageopacity="0"
     guidetolerance="10"
     gridtolerance="10"
     objecttolerance="10"
     borderopacity="1"
     bordercolor="#666666"
     pagecolor="#ffffff" />
  <defs
     id="defs4" />
  <g
     inkscape:label="layer_districts"
     id="layer10"
     style="display:inline;fill-opacity:1"
     transform="translate(-52.37206,-18.03387)">
    <path
       inkscape:label="bialoleka"
       id="path12416"
       style="display:inline;fill-opacity:1;fill-rule:evenodd;stroke:none;stroke-width:3;stroke-linecap:butt;stroke-linejoin:round;stroke-miterlimit:4;stroke-opacity:1;"
       d="m 598.67564,258.46687 -41.12452,0.35142 -7.34312,1.53533 c -1.05346,-5.66045 -3.82996,-3.16719 -3.47086,0.91 -7.80891,3.24165 -16.71466,7.89249 -21.17177,8.82723 -4.46893,0.93721 -43.05581,16.68371 -43.05581,16.68371 -2.96628,-3.37238 -5.77855,-0.88802 -6.03172,2.44651 -3.96445,2.17044 -7.6933,3.81081 -11.04863,4.61074 -5.23226,0.7632 -8.26235,-0.57738 -7.00008,4.32487 -3.24204,2.56496 -7.0461,4.2307 -11.04625,5.58269 -1.67743,-1.85703 -3.58371,-3.54002 -5.40996,-3.01586 -1.86934,-4.89474 -6.71973,-6.85763 -6.26161,1.87717 -0.40355,2.56205 -1.83935,5.1241 0,7.68615 -2.681,0.83367 -3.60471,3.45344 -7.97608,4.63969 -3.05511,0.82907 -4.92663,3.53511 -7.98417,4.59644 -2.03533,-0.18317 -4.93177,-0.0856 -6.2416,0.84885 -1.24486,0.8881 -2.52239,0.77095 -3.0256,-0.29654 -6.19618,-13.14437 -8.91459,-1.80337 -8.93324,1.02911 0.0795,2.7975 0.92529,5.44594 -2.84434,7.79931 -2.19507,1.93767 0.45796,2.12877 0.45142,3.58878 -1.34712,1.07783 -2.57451,1.99576 -3.96706,2.81253 -12.31513,-14.2959 -27.534,-23.03555 -39.6866,-25.66087 -21.45336,-4.648 -34.74297,-11.24566 -49.58615,-25.73647 -7.80237,-8.68185 -9.04234,-17.89745 -13.61889,-24.55409 -9.48939,-13.80242 -18.1724,-19.98396 -22.85963,-22.00028 -25.28036,-10.90459 -38.81435,-34.75221 -38.81435,-60.11503 l 1.46774,-37.66802 c -0.89444,-11.00061 -5.39149,-18.0906 -9.74189,-25.03421 -7.77492,-8.81202 -13.99713,-18.012209 -20.62222,-27.111689 l 24.22112,-15.57054 2.64888,-9.40599 6.46394,-0.23623 5.48988,2.63556 3.85294,3.43405 6.75163,-6.47342 9.60024,5.79687 c 1.75262,0.27822 2.88616,0.01019 2.0406,-2.0041 l -8.45122,-17.34862 9.96753,5.6815 9.36949,-18.24059 2.99026,2.19285 0.29902,-2.19285 17.64254,0.09967 2.49188,-5.18312 29.40423,-0.89707 11.36299,33.78994 18.34027,0.19935 c 2.64977,-2.05747 5.9979,-4.11495 13.66102,-6.17242 5.28057,-1.70851 12.06863,-5.07518 14.17713,-6.31431 1.05452,-0.61972 2.90807,-1.02581 3.77937,-0.723 2.54344,1.33199 0.19552,2.97308 9.05003,3.04285 1.91963,-2.06102 4.06372,-3.64496 6.99807,-5.56102 5.07469,-0.30501 9.51481,-1.18637 14.5318,-2.31334 3.04987,6.67646 6.25355,13.39935 4.93119,21.13118 l 2.54446,6.08019 18.83865,1.59481 8.27305,-2.49188 1.69448,1.49513 4.54856,-3.24804 c 1.63221,-4.56261 3.09962,-14.61748 3.82417,-22.46821 l 5.88085,-5.38246 7.07695,11.36299 24.61981,-3.18962 7.762,-5.21168 8.36654,0.21452 1.93074,2.78885 0.21453,5.36317 10.94085,-4.29054 16.9476,1.28716 0.21453,-12.01349 8.58106,-0.21452 20.80908,-5.57769 c 0.82574,1.11719 7.02667,24.68099 7.93749,28.74656 l -1.98843,2.14526 5.63538,19.73645 7.59136,0.04147 9.01012,39.389959 -11.66737,0.89957 c 2.05853,6.84433 3.20887,14.25627 4.04356,21.86549 l 6.74948,0.0162 0.27941,11.31222 3.19172,6.31553 c 2.42357,-0.004 1.33814,2.36666 1.46298,3.23 l -3.28461,0.38039 7.93749,30.89183 -27.5171,7.43451 c 5.59961,17.47574 9.41846,35.54293 12.88277,53.17118 z" />
    <path
       inkscape:label="bielany"
       id="path13305"
       style="display:inline;fill-opacity:1;fill-rule:evenodd;stroke:none;stroke-width:3;stroke-linecap:butt;stroke-linejoin:round;stroke-miterlimit:4;stroke-opacity:1;"
       d="m 230.50096,176.42918 c 0.32901,28.14968 13.65805,50.01952 38.93841,60.92411 4.68723,2.01632 13.37024,8.19786 22.85963,22.00028 4.57655,6.65664 5.81652,15.87224 13.61889,24.55409 14.84318,14.49081 28.13279,21.08847 49.58615,25.73647 12.47515,2.695 27.01523,11.00015 39.64882,25.84793 -3.40999,2.46079 -6.41048,4.30087 -10.6135,7.69648 -5.18899,4.19217 -7.5894,-5.63537 -12.09203,-1.63776 -1.58916,1.23149 -1.99292,2.01012 -0.81123,4.41524 0.51699,4.43912 -1.51633,5.8901 -3.52079,7.53742 l -39.09899,32.79093 c -6.94891,-0.3222 -8.31517,3.6072 -8.938,8.2555 -2.77285,4.03941 -5.25669,8.03753 -9.03567,12.22067 -3.08544,2.69547 -5.42542,5.75156 -6.3847,9.66197 -1.94381,2.97991 -4.19056,6.04941 -6.46637,8.72807 -1.64114,1.93164 -3.96494,3.84296 -4.77547,6.00924 l -21.29607,-8.77955 -6.27299,-7.39317 -50.85606,-16.35459 -14.78634,-6.72107 -36.96586,-15.01037 -6.04896,-0.89615 -10.30563,-12.32195 -8.06528,-0.44807 -1.56824,3.36053 -8.64573,-0.29582 c -4.85239,-2.74994 -8.93719,-2.58698 -12.86277,-3.15193 l 2.17002,-61.12233 -1.92891,-10.00621 c 0,0 9.45718,-35.74138 9.88567,-39.06043 0.47375,-3.66973 -6.97734,-13.73441 -10.89345,-18.85216 -0.46976,-0.6139 0.88469,-2.11072 2.33391,-1.52194 8.52457,4.28431 20.18389,4.90618 30.38033,4.82227 2.03484,-8.87092 1.82066,-16.64618 14.29894,-31.04598 9.01614,-1.14534 17.77072,-2.90097 25.8679,-6.19054 l 1.14129,4.38648 4.14699,-1.80161 3.53828,-5.59879 6.4738,8.83829 20.38379,-7.50563 1.08569,-11.027 z" />
    <path
       inkscape:label="bemowo"
       id="path14193"
       style="display:inline;fill-opacity:1;fill-rule:evenodd;stroke:none;stroke-width:3;stroke-linecap:butt;stroke-linejoin:round;stroke-miterlimit:4;stroke-opacity:1;"
       d="m 293.14283,431.16982 c -0.9045,5.30976 -2.98111,10.1782 -6.88455,14.33642 -4.73153,5.04037 -4.77001,8.2441 -3.41606,11.3869 -1.0761,3.79544 -4.5269,7.99961 -6.83333,11.44406 l -8.76768,8.08398 c -4.33294,-0.69505 -6.89999,3.97122 -9.39419,5.46715 0,0 -25.33167,20.16382 -26.36495,25.11907 -4.07734,19.55349 -6.6171,30.17487 -9.84443,45.82035 -1.52981,7.38913 1.13869,13.94895 1.13869,13.94895 0,0 4.14056,9.34417 5.18128,15.43068 1.25213,7.32286 1.01868,9.68064 -3.19096,13.83221 -2.94176,2.90119 -7.9527,6.04742 -11.95467,5.77369 -6.5085,-0.44519 -5.28379,3.15869 -5.8646,5.45879 l -1.82312,7.3296 -69.17302,13.94895 c -3.56656,1.32258 -7.33547,1.56595 -10.48286,5.1241 h -3.34579 c -4.32014,-3.95057 -7.23994,-1.61375 -10.25416,-0.0548 l -9.49174,0.0692 0.46591,-1.68003 5.18394,-27.37598 3.61671,-0.24112 1.80835,-30.13921 -5.54562,-2.53169 v -13.62293 c 5.2522,-1.37574 11.25255,-5.14561 18.08353,-11.57346 l 22.06191,-0.24111 c 5.49814,-20.16356 11.9278,-40.77877 7.35397,-56.05894 L 87.170206,477.56614 c 12.424163,-18.27271 23.546024,-36.87099 34.720374,-55.45615 l 6.50611,-55.84203 8.85399,0.33747 1.56824,-3.36053 8.06528,0.44807 10.30563,12.32195 6.04896,0.89615 36.96586,15.01037 14.78634,6.72107 50.85606,16.35459 6.27299,7.39317 z" />
    <path
       inkscape:label="ursus"
       id="path15083"
       style="display:inline;fill-opacity:1;fill-rule:evenodd;stroke:none;stroke-width:3;stroke-linecap:butt;stroke-linejoin:round;stroke-miterlimit:4;stroke-opacity:1;"
       d="m 126.09471,633.55556 45.65594,29.49643 c -1.55421,8.68805 8.03144,12.92366 14.75423,14.1847 5.8896,3.38876 10.0982,7.18677 15.94686,14.99764 5.83917,7.05399 9.74023,1.9646 13.37175,0.43326 l -9.35466,28.35461 -9.50384,2.11424 -2.2677,-1.8554 -2.47386,2.0615 -0.82462,4.1231 -7.21541,0.8246 -14.84312,0.6185 -2.88617,5.5662 -52.1571,0.2061 c -1.88187,1.4803 -3.28072,1.0285 -4.5354,0 l -15.667747,0.4123 -0.206154,-30.92317 -24.409682,10.63227 c 0.67268,-0.1345 1.394999,-15.14136 -0.328865,-15.99229 -2.072952,0.68569 -11.791691,-31.8462 -10.513883,-33.60319 0.01,-11.5097 5.781049,-20.56788 20.615456,-25.76932 l 23.125955,-5.41595 9.49174,-0.40177 c 3.01422,-1.55895 5.93402,-3.89577 10.25416,0.0548 z" />
    <path
       inkscape:label="wlochy"
       id="path15971"
       style="display:inline;fill-opacity:1;fill-rule:evenodd;stroke:none;stroke-width:3;stroke-linecap:butt;stroke-linejoin:round;stroke-miterlimit:4;stroke-opacity:1;"
       d="m 205.12426,614.60167 -69.17302,13.94895 c -3.56656,1.32258 -7.15735,1.38783 -10.02754,4.82682 l 45.82695,29.67455 c -1.55421,8.68805 8.03144,12.92366 14.75423,14.1847 5.8896,3.38876 10.0982,7.18677 15.94686,14.99764 5.83917,7.05399 9.74023,1.9646 13.37175,0.43326 l -9.50651,28.95844 -8.73353,23.98121 12.57543,4.3292 0.41231,3.0924 3.71078,0.6184 1.64924,2.2677 0.20615,23.0893 h 4.94771 l 9.0708,14.4309 -2.68001,3.9169 14.43082,7.8339 -0.61846,3.0923 c 7.53096,7.0836 18.14554,14.2759 30.97964,18.4861 3.95335,1.2969 7.52253,2.211 11.4639,5.7878 l 13.34628,2.9125 0.23425,12.1976 c 14.52517,13.4202 27.55798,26.9186 50.41375,32.179 7.83024,5.23104 9.98727,6.67 18.61753,15.89823 l 2.27166,-6.61943 c 0.16802,-1.2837 3.76493,0.0888 11.7124,0.2712 l -4.30777,-64.1397 c 0.56713,-4.5285 -1.80553,-6.2842 -1.18506,-10.6543 0.0447,-7.4615 -0.64061,-18.9814 -0.453,-20.8661 0.65313,-6.5609 1.09776,-12.8126 0.0586,-17.5568 l -0.60823,-62.3139 c -0.56789,-9.13969 -4.45333,-15.28068 -10.75371,-17.6988 -25.01063,-9.87871 -50.01979,-19.76618 -75.23648,-28.40852 -4.23504,-1.57515 -8.50881,-3.21757 -11.18085,-6.20465 -2.67204,-2.98708 -5.57364,-5.64978 -9.28012,-12.40903 -3.68832,-6.72612 -7.19857,-11.72383 -9.07194,-14.13948 -1.9035,-2.45451 -1.66443,-9.11953 -0.26364,-13.10608 -7.81585,1.17068 -14.96021,4.59314 -21.77106,8.8494 -19.24454,-1.20005 -11.16887,-8.70477 -8.28931,-15.01038 h -9.40949 l -4.92878,-3.36053 h -8.06528 l 0.0879,0.12613 z" />
    <path
       inkscape:label="pragapn"
       id="path16861"
       style="display:inline;fill-opacity:1;fill-rule:evenodd;stroke:none;stroke-width:3;stroke-linecap:butt;stroke-linejoin:round;stroke-miterlimit:4;stroke-opacity:1;"
       d="m 395.21868,335.43298 3.93902,-2.94051 c 0.007,-1.46001 -2.64649,-1.65111 -0.45142,-3.58878 3.76963,-2.35337 2.92381,-5.00181 2.84434,-7.79931 0.0187,-2.83248 2.73706,-14.17348 8.93324,-1.02911 0.50321,1.06749 1.78074,1.18464 3.0256,0.29654 1.30983,-0.93444 4.20627,-1.03202 6.2416,-0.84885 3.05754,-1.06133 4.92906,-3.76737 7.98417,-4.59644 4.37137,-1.18625 5.29508,-3.80602 8.28319,-4.43202 3.31535,6.81162 1.29936,10.34736 7.59353,16.72795 2.95431,2.99948 5.21024,7.65558 9.0176,13.29891 l 0.21453,21.88171 c 8.43286,12.54713 6.48359,37.10302 25.95771,36.04047 5.25249,5.23232 10.76614,10.31539 19.95098,13.30065 26.38677,12.89256 52.58588,21.98605 78.54359,32.84943 l -19.54878,4.69272 -5.57769,6.4358 -18.44929,11.36991 -5.79222,2.35979 c -19.59707,11.66806 -24.87141,13.6521 -21.88171,35.39689 -3.26343,6.84273 -8.80213,12.02752 -15.21896,16.83579 -5.95976,-8.50731 -13.26296,-15.95662 -21.35724,-23.17343 -8.90576,-6.92775 -15.8708,-14.79949 -21.02493,-24.32452 -6.31653,-11.98021 -12.10711,-21.71576 -17.29255,-30.43908 -9.01278,-15.16198 -15.17844,-35.19971 -15.4759,-52.69343 -0.38813,-22.85914 -9.21763,-42.01709 -20.45841,-55.62108 z" />
    <path
       inkscape:label="srodmiescie"
       id="path16859"
       style="display:inline;fill-opacity:1;fill-rule:evenodd;stroke:none;stroke-width:3;stroke-linecap:butt;stroke-linejoin:round;stroke-miterlimit:4;stroke-opacity:1;"
       d="m 360.69853,442.16527 12.50044,-0.83119 0.65216,0.68329 24.65612,1.05746 c 1.18593,-0.70345 2.63582,-0.35104 4.0042,-0.32467 l 2.27265,1.73155 6.81796,-0.32467 c 2.44058,-0.79736 4.496,-1.71026 6.27685,-2.70554 0.56238,-1.02487 1.76329,-1.41121 3.24665,-1.5151 l 6.22482,-3.35904 c 1.31764,2.88852 2.18077,4.44175 3.80261,7.17013 5.18544,8.72332 10.97602,18.45887 17.29255,30.43908 5.15413,9.52503 12.11917,17.39677 21.02493,24.32452 8.09428,7.21681 15.0822,14.93979 21.46408,23.25267 4.7186,6.14633 13.74114,20.28072 21.01228,36.16211 3.01963,6.59538 13.07588,30.58059 41.53503,38.41477 l -6.14613,9.13633 -16.39573,3.97837 0.48222,2.5317 -11.09123,3.13447 -0.96445,-2.53169 -6.02784,1.32613 1.80835,8.43898 v 3.13447 l -6.02784,6.02785 -19.65077,0.36167 -3.85782,10.24733 -4.70172,-0.36167 -8.07731,0.36167 -8.31842,-9.64455 -2.5317,-7.83619 -5.66617,-6.1484 -1.68779,0.60278 -1.56724,-1.44668 -5.90729,1.56724 -0.24111,1.32612 -25.8169,7.25437 -4.56343,-24.37344 -0.36167,-22.66469 -15.67239,-38.69875 -5.78673,-23.62915 -30.75805,-57.8378 -2.52259,-9.88849 z" />
    <path
       inkscape:label="targowek"
       id="path18635"
       style="display:inline;fill-opacity:1;fill-rule:evenodd;stroke:none;stroke-width:3;stroke-linecap:butt;stroke-linejoin:round;stroke-miterlimit:4;stroke-opacity:1;"
       d="m 656.10727,386.36367 -5.80678,0.28091 -14.01275,-46.33775 h -8.60449 c -0.73518,-2.93186 -1.39529,-5.86373 -1.07263,-8.79559 -7.3719,-8.94106 -12.53368,-18.41413 -17.3523,-26.42676 -2.82131,-4.6914 -3.75198,-10.16498 -5.57648,-15.26987 -1.44756,-4.05023 -3.25549,-7.60368 -4.53063,-11.50596 l 4.93411,-1.71621 -5.20585,-17.96251 -41.32835,0.18836 -7.34312,1.53533 c -1.05346,-5.66045 -3.82996,-3.16719 -3.47086,0.91 -7.80891,3.24165 -16.71466,7.89249 -21.17177,8.82723 -4.46893,0.93721 -43.05581,16.68371 -43.05581,16.68371 -2.96628,-3.37238 -5.77855,-0.88802 -6.03172,2.44651 -3.96445,2.17044 -7.6933,3.81081 -11.04863,4.61074 -5.23226,0.7632 -8.26235,-0.57738 -7.00008,4.32487 -3.24204,2.56496 -7.0461,4.2307 -11.04625,5.58269 -1.67743,-1.85703 -3.58371,-3.54002 -5.40996,-3.01586 -1.86934,-4.89474 -6.71973,-6.85763 -6.26161,1.87717 -0.40355,2.56205 -2.02496,5.63454 0.39992,7.80101 3.31535,6.81162 1.20655,10.44017 7.50072,16.82076 2.95431,2.99948 5.21024,7.65558 9.0176,13.29891 l 0.21453,21.88171 c 8.43286,12.54713 6.48359,37.10302 25.95771,36.04047 5.25249,5.23232 10.76614,10.31539 19.95098,13.30065 26.38677,12.89256 52.84037,22.00663 78.79809,32.87001 l 12.80476,-3.69439 3.64695,0.21452 11.79897,-2.35979 57.09304,2.35712 -6.03571,-32.39084 h 2.14526 v -7.93749 l 1.93074,-1.50168 -4.076,-12.01349" />
    <path
       inkscape:label="zoliborz"
       id="path19523"
       style="display:inline;fill-opacity:1;fill-rule:evenodd;stroke:none;stroke-width:3;stroke-linecap:butt;stroke-linejoin:round;stroke-miterlimit:4;stroke-opacity:1;"
       d="m 427.18597,436.68976 -6.06041,3.24664 c -1.48336,0.10389 -2.68427,0.49023 -3.24665,1.5151 -1.78085,0.99528 -3.83627,1.90818 -6.27685,2.70554 l -6.81796,0.32467 -2.27265,-1.73155 c -1.36838,-0.0264 -2.81827,-0.37878 -4.0042,0.32467 l -24.65612,-1.05746 -0.65216,-0.68329 -12.89393,0.87497 -16.79273,9.14933 -0.41449,1.00794 -6.27685,3.37043 c -0.77799,1.68109 -1.86573,1.50364 -2.92199,1.5151 -3.79936,1.07835 -5.64931,2.8065 -7.79194,4.43708 -2.47278,0.69121 -3.21171,0.082 -4.65353,10e-6 -0.7127,-1.05493 -1.84069,-1.69456 -2.81377,-2.4891 -2.56124,0.2843 -5.12249,-1.91122 -7.68373,-2.92198 -3.2863,-0.0397 -5.94801,0.54529 -7.79195,1.94799 -2.59732,1.69596 -3.66056,-0.30982 -5.73574,-0.32467 -4.77349,-0.036 -7.85107,-0.52881 -10.93038,-2.81376 -1.8983,-1.63513 -2.82675,-0.68397 -3.85103,0.0218 -0.5572,-2.41138 -1.12016,-4.56258 3.61137,-9.60295 3.90344,-4.15822 6.04199,-9.20853 6.94649,-14.5183 1.02187,-1.9844 3.34567,-3.89572 4.98681,-5.82736 2.27581,-2.67866 4.52256,-5.74816 6.46637,-8.72807 0.95928,-3.91041 3.29926,-6.9665 6.3847,-9.66197 3.77898,-4.18314 6.26282,-8.18126 9.03567,-12.22067 0.62283,-4.6483 1.98909,-8.5777 8.938,-8.2555 l 39.09899,-32.79093 c 2.00446,-1.64732 4.03778,-3.0983 3.52079,-7.53742 -1.18169,-2.40512 -0.77793,-3.18375 0.81123,-4.41524 4.50263,-3.99761 6.90304,5.82993 12.09203,1.63776 4.26195,-3.44323 7.28742,-5.58771 10.95529,-7.55401 11.39295,14.25522 19.80079,32.9424 20.18244,55.41953 0.29746,17.49372 6.46312,37.53145 15.4759,52.69343" />
    <path
       inkscape:label="wola"
       id="path20411"
       style="display:inline;fill-opacity:1;fill-rule:evenodd;stroke:none;stroke-width:3;stroke-linecap:butt;stroke-linejoin:round;stroke-miterlimit:4;stroke-opacity:1;"
       d="m 408.74772,562.70922 -8.25024,-20.64516 -5.78673,-23.62915 -30.75805,-57.8378 -2.52259,-9.88849 -0.68861,-8.74021 -17.22919,9.38997 -0.41449,1.00794 -6.27685,3.37043 c -0.77799,1.68109 -1.86573,1.50364 -2.92199,1.5151 -3.79936,1.07835 -5.64931,2.8065 -7.79194,4.43708 -2.47278,0.69121 -3.21171,0.082 -4.65353,10e-6 -0.7127,-1.05493 -1.84069,-1.69456 -2.81377,-2.4891 -2.56124,0.2843 -5.12249,-1.91122 -7.68373,-2.92198 -3.2863,-0.0397 -5.94801,0.54529 -7.79195,1.94799 -2.59732,1.69596 -3.66056,-0.30982 -5.73574,-0.32467 -4.77349,-0.036 -7.85107,-0.52881 -10.93038,-2.81376 -1.8983,-1.63513 -2.82675,-0.68397 -3.8991,-0.0948 -0.63537,0.23229 -0.16969,0.94171 0.24338,1.90054 -1.0761,3.79544 -4.5269,7.99961 -6.83333,11.44406 l -8.76768,8.08398 c -4.33294,-0.69505 -6.89999,3.97122 -9.39419,5.46715 0,0 -25.33167,20.16382 -26.36495,25.11907 -4.07734,19.55349 -6.6171,30.17487 -9.84443,45.82035 -1.52981,7.38913 1.13869,13.94895 1.13869,13.94895 0,0 4.14056,9.34417 5.18128,15.43068 1.25213,7.32286 1.01868,9.68064 -3.19096,13.83221 -2.94176,2.90119 -7.9527,6.04742 -11.95467,5.77369 -6.5085,-0.44519 -5.27816,3.16012 -5.8646,5.45879 l -1.33832,5.11907 8.03772,-0.0188 4.92878,3.36053 h 9.40949 c -2.87956,6.30561 -10.95523,13.81033 8.28931,15.01038 6.81085,-4.25626 13.95521,-7.67872 21.95548,-8.96142 3.21118,-1.06994 6.42235,-2.03198 9.63353,-4.25667 6.06285,-5.33343 9.79764,-5.65277 12.77002,-3.80861 h 16.35459 c 3.38997,-1.75153 6.57772,-3.65473 7.61721,-7.16913 1.94076,-1.79317 3.50691,-3.96094 4.25667,-6.9451 l 7.39318,-1.56826 4.92878,-2.01631 9.18545,-3.58457 1.79229,1.79229 c 5.45153,-3.35292 10.90306,-7.35728 16.35459,-9.63353 3.88328,-1.17465 7.76656,-3.20697 11.64984,-4.92878 l 16.80266,-6.04896 c 2.091,-1.41113 4.182,-2.59767 6.273,-2.24036 z" />
    <path
       inkscape:label="ochota"
       id="path21299"
       style="display:inline;fill-opacity:1;fill-rule:evenodd;stroke:none;stroke-width:3;stroke-linecap:butt;stroke-linejoin:round;stroke-miterlimit:4;stroke-opacity:1;"
       d="m 363.2222,696.20589 13.52558,-66.73811 23.26747,4.21949 21.13737,-5.92688 -4.62108,-24.33289 -0.36167,-22.66469 -7.25976,-18.01616 -25.66846,8.62722 c -2.091,-0.35731 -4.182,0.82923 -6.273,2.24036 l -16.80266,6.04896 c -3.88328,1.72181 -7.76656,3.75413 -11.64984,4.92878 -5.45153,2.27625 -10.90306,6.28061 -16.35459,9.63353 l -1.79229,-1.79229 -9.18545,3.58457 -4.92878,2.01631 -7.39318,1.56826 c -0.74976,2.98416 -2.31591,5.15193 -4.25667,6.9451 -1.03949,3.5144 -4.22724,5.4176 -7.61721,7.16913 h -16.35459 c -2.97238,-1.84416 -6.70717,-1.52482 -12.77002,3.80861 -3.21118,2.22469 -6.50511,3.18673 -9.90072,4.36869 -1.40078,4.37845 -1.55709,10.65157 0.34641,13.10608 1.87337,2.41565 5.38362,7.41336 9.07194,14.13948 3.70648,6.75925 6.60808,9.42195 9.28012,12.40903 2.67204,2.98708 6.94581,4.6295 11.18085,6.20465 25.21669,8.64234 50.3696,18.57406 75.38023,28.45277 z" />
    <path
       inkscape:label="rembertow"
       id="path22189"
       style="display:inline;fill-opacity:1;fill-rule:evenodd;stroke:none;stroke-width:3;stroke-linecap:butt;stroke-linejoin:round;stroke-miterlimit:4;stroke-opacity:1;"
       d="m 714.81135,519.90041 -4.41574,-3.00523 c -1.09079,-1.89233 -0.60336,-2.97516 0.11139,-4.32349 l 2.24016,-3.32928 0.10315,-7.18252 -40.11648,-49.12659 0.2296,-11.37346 -10.09782,-0.42551 -6.00674,-32.39351 h 2.14526 v -7.93749 l 1.93074,-1.50168 -4.39627,-13.03107 95.7846,-18.79278 c 4.25924,-0.83603 4.42645,-10.19418 10.12039,-11.68498 3.18457,-0.85205 3.9943,-3.57003 5.111,-6.04682 l 13.04465,-5.28925 8.63155,-18.77919 10.07373,-4.24907 7.29391,8.36654 -1.72772,40.2296 -1.70471,6.75172 c 8.02269,9.21451 21.11207,27.97074 24.07335,27.63034 3.22505,-0.37071 5.89443,5.24452 8.72398,9.48277 l -0.64358,27.24487 c -2.33153,4.17972 -3.47083,9.27146 -10.85793,10.56229 l 25.16444,3.48524 1.3157,22.15286 c -0.81056,2.9156 -1.90641,1.55179 -3.00737,0.11138 -0.70148,-2.5364 -0.32113,-4.20733 -2.33908,-7.79691 -1.64719,-0.76316 -2.98435,0.64383 -4.34399,1.89353 l -0.6683,5.68061 -8.91075,2.89599 c 1.81816,4.08409 3.66163,8.16819 3.45291,12.25228 l -17.71011,4.23261 c -4.09245,2.76918 -5.53637,4.54516 -7.35137,6.46029 l -20.49472,6.23753 -2.896,0.44553 c -1.76464,-1.34922 -3.71771,-2.4629 -4.34399,-5.23506 -14.40679,4.97436 -29.99637,9.06162 -43.21713,14.9255 l -3.23015,0.11139 -5.34645,-14.81412 c -1.4406,-2.19088 -2.51392,-0.70891 -3.67568,-0.11139 -4.35105,5.23461 -7.89681,9.64306 -12.04843,15.27653 z" />
    <path
       inkscape:label="wesola"
       id="path22187"
       style="display:inline;fill-opacity:1;fill-rule:evenodd;stroke:none;stroke-width:3;stroke-linecap:butt;stroke-linejoin:round;stroke-miterlimit:4;stroke-opacity:1;"
       d="m 966.29825,682.92387 -2.85927,-0.86663 -0.53554,-3.21326 -52.21544,-0.53553 c -1.04905,-8.99257 -1.6136,-17.34333 -0.53554,-27.04493 l 5.08766,-3.48103 c -3.07231,-4.8151 -6.66489,-13.27205 -9.10423,-13.65634 1.08503,-4.10583 1.67873,-8.21166 1.33886,-12.31749 l -4.28435,-8.30091 -3.48103,-0.26777 -12.85303,-23.29612 2.14218,-0.80332 c -1.08318,-7.3902 -0.22559,-17.69155 0,-27.04491 4.40559,-1.84241 7.72375,-4.77225 10.71085,-8.03315 l -9.372,-11.51417 c -9.58674,-5.74157 -18.07262,-6.52929 -26.2416,-5.89097 -7.92629,-5.46228 -15.52115,-11.256 -24.09944,-16.06629 -4.28434,-1.55983 -8.56868,-7.69055 -12.85303,-11.78195 l -9.9527,-12.1273 17.93478,-4.3102 c 0.20872,-4.08409 -1.63475,-8.16819 -3.45291,-12.25228 l 8.91075,-2.89599 0.6683,-5.68061 c 1.35964,-1.2497 2.6968,-2.65669 4.34399,-1.89353 2.01795,3.58958 1.6376,5.26051 2.33908,7.79691 1.10096,1.44041 2.19681,2.80422 3.00737,-0.11138 l -1.32292,-22.09911 139.7308,-25.68571 5.38841,35.39688 4.29053,-0.21452 -1.93074,28.96109 -36.68405,2.35979 3.00338,33.25162 c 7.56174,1.87707 15.538,1.26702 23.71329,-0.53723 l 6.96401,-7.61478 h 5.14864 l -0.42905,10.29728 c -1.71943,5.12437 -5.44437,9.98134 -9.43917,14.80233 l -2.3598,35.39689 2.26064,0.0324 c 7.54198,15.67673 14.11127,25.37883 27.12947,47.80698 -4.1613,1.36411 -9.5814,1.04976 -14.5878,1.28716 -7.65881,3.46966 -12.51859,7.82323 -17.31894,12.19557 l 0.37137,8.61351 c 3.90643,2.75175 5.42252,4.87446 6.43579,6.86485 l -10.94085,5.14864 c -2.59915,3.14193 -5.46387,5.08879 -8.36654,6.86485 l -0.29746,5.23157 z" />
    <path
       inkscape:label="pragapd"
       id="path23963"
       style="display:inline;fill-opacity:1;fill-rule:evenodd;stroke:none;stroke-width:3;stroke-linecap:butt;stroke-linejoin:round;stroke-miterlimit:4;stroke-opacity:1;"
       d="m 620.75984,610.3735 8.75001,-8.84522 c 0.24488,-2.10462 1.39034,-3.12855 3.11876,-3.45292 l 50.90265,-53.24172 12.25228,-0.11139 c 5.82261,-0.51205 7.41071,-4.51133 8.24244,-9.13351 3.36331,-5.39109 7.0085,-10.56252 10.5967,-15.67369 l -4.22707,-3.01987 c -1.09079,-1.89233 -0.60336,-2.97516 0.11139,-4.32349 l 2.24016,-3.32928 0.10315,-7.18252 -40.11648,-49.12659 0.21453,-11.36991 -67.14682,-2.78885 -11.79897,2.35979 -3.64695,-0.21452 -13.30065,3.86147 -19.30739,4.50506 -5.57769,6.4358 -18.44929,11.36991 -5.79222,2.35979 c -19.59707,11.66806 -24.87141,13.6521 -21.88171,35.39689 -3.26343,6.84273 -8.8573,11.949 -15.1171,16.78344 4.98369,6.08277 13.74612,20.67892 21.01726,36.2937 3.06207,6.57578 13.47579,30.71389 40.828,38.22514 11.58658,3.18182 15.48515,2.13671 23.10432,1.38989 2.53564,-0.24854 6.94081,-0.35288 10.52902,0.0523 11.62547,1.31272 23.14854,4.85077 34.35167,12.78031 z" />
    <path
       inkscape:label="wawer"
       id="path24851"
       style="display:inline;fill-opacity:1;fill-rule:evenodd;stroke:none;stroke-width:3;stroke-linecap:butt;stroke-linejoin:round;stroke-miterlimit:4;stroke-opacity:1;"
       d="m 817.21604,496.76391 c -4.09245,2.76918 -5.33714,4.38546 -7.15214,6.30059 l -20.49472,6.23753 -2.896,0.44553 c -1.76464,-1.34922 -3.71771,-2.4629 -4.34399,-5.23506 -14.40679,4.97436 -29.99637,9.06162 -43.21713,14.9255 l -3.23015,0.11139 -5.34645,-14.81412 c -1.4406,-2.19088 -2.51392,-0.70891 -3.67568,-0.11139 -7.9749,9.59435 -15.74393,19.60044 -22.8338,30.96486 -0.83173,4.62218 -2.41983,8.62146 -8.24244,9.13351 l -12.25228,0.11139 -50.90265,53.24172 c -1.72842,0.32437 -2.87388,1.3483 -3.11876,3.45292 l -8.6004,8.8574 c 16.56762,13.45705 28.08786,33.15787 27.27906,57.08224 -0.53915,14.76006 1.56355,23.55231 6.44616,36.54162 7.40949,19.7116 19.93926,35.0873 35.39445,46.6417 15.19819,9.1463 44.26599,21.6616 48.90788,64.7739 1.51606,16.5328 13.46014,31.1571 24.72984,35.7636 11.42374,4.6696 22.29324,13.1503 24.82338,27.6334 9.52239,0.8449 18.58448,-2.4742 27.33285,-7.1329 l 0.85811,-7.2939 28.31751,-8.152 1.50168,3.6469 62.42724,-9.0101 c 14.94535,-11.816 29.89071,-19.078 44.83606,-26.6013 l 32.60804,22.0962 -2.35979,5.3632 19.09288,16.304 16.304,-21.8817 -19.52191,-16.304 5.79221,-12.228 6.8649,-2.1453 3.2179,-12.6571 c 1.2144,-4.2746 -0.5545,-9.4985 6.8648,-11.7989 l 7.5084,-0.6436 0.8581,-2.3598 6.782,-0.5697 c 0.8232,-4.2311 -2.6777,-5.6575 -7.5085,-6.2213 l -0.7337,-12.318 6.2213,0.429 0.3299,4.6528 1.9884,-0.1316 0.2145,-8.3665 -3.6469,-0.2145 -22.5577,-30.9333 c 5.9698,-3.0969 10.4872,-7.9796 13.0771,-13.6883 l -59.07596,-37.41954 0.83637,-0.11457 -3.48103,-1.07109 -0.53554,-3.21326 -52.21544,-0.53553 c -1.04905,-8.99257 -1.6136,-17.34333 -0.53554,-27.04493 l 5.08766,-3.48103 c -3.07231,-4.8151 -6.66489,-13.27205 -9.10423,-13.65634 1.08503,-4.10583 1.67873,-8.21166 1.33886,-12.31749 l -4.28435,-8.30091 -3.48103,-0.26777 -12.85303,-23.29612 2.14218,-0.80332 c -1.08318,-7.3902 -0.22559,-17.69155 0,-27.04491 4.40559,-1.84241 7.72375,-4.77225 10.71085,-8.03315 l -9.372,-11.51417 c -9.58674,-5.74157 -18.07262,-6.52929 -26.2416,-5.89097 -7.92629,-5.46228 -15.52115,-11.256 -24.09944,-16.06629 -4.28434,-1.55983 -8.56868,-7.69055 -12.85303,-11.78195 z" />
    <path
       inkscape:label="mokotow"
       id="path25739"
       style="display:inline;fill-opacity:1;fill-rule:evenodd;stroke:none;stroke-width:3;stroke-linecap:butt;stroke-linejoin:round;stroke-miterlimit:4;stroke-opacity:1;"
       d="m 363.36596,695.53294 13.38182,-66.06516 23.26747,4.21949 46.89662,-13.1407 0.24111,-1.32612 5.90729,-1.56724 1.56724,1.44668 1.68779,-0.60278 5.66617,6.1484 2.5317,7.83619 8.31842,9.64455 8.07731,-0.36167 4.70172,0.36167 3.85782,-10.24733 19.65077,-0.36167 6.02784,-6.02785 v -3.13447 l -1.80835,-8.43898 6.02784,-1.32613 0.96445,2.53169 11.09123,-3.13447 -0.48222,-2.5317 16.39573,-3.97837 6.08837,-9.11109 c 11.41277,2.85889 14.83588,1.92184 22.45505,1.17502 2.53564,-0.24854 6.94081,-0.35288 10.52902,0.0523 12.01787,1.35703 23.86922,5.09533 35.43176,13.60131 15.63714,13.07449 27.15738,32.34905 26.34858,56.27342 -0.32422,8.8759 0.30691,16.13393 2.05804,22.76159 -2.49983,0.38418 -4.15999,2.67951 -4.94532,6.18428 -4.53719,1.09613 -7.98739,3.27924 -8.52004,8.3799 -0.58901,5.36915 2.39505,10.39956 -3.21951,15.79571 l -3.11889,0.40244 c -5.57718,1.51801 -4.81833,13.99931 -5.43292,19.61887 l -10.4634,1.40854 c -1.37766,-3.52219 -12.4563,-9.5893 -19.21644,-15.39327 l -17.10394,17.00273 c -5.27139,6.03587 -10.34368,12.31067 -16.90211,16.8021 -4.43091,-0.48243 -6.56826,0.64062 -8.3506,2.01219 l 11.97254,19.21644 c 0.24556,1.0115 -0.14655,1.70416 -1.50914,1.91158 -6.93318,-1.03398 -14.48707,-2.46295 -18.61278,-1.71036 -4.39329,2.08888 -8.70104,2.17104 -13.08839,2.70761 l -14.75835,-14.17769 c -2.32568,-1.0628 -3.57777,-3.02509 -4.73713,-4.92097 -1.84656,-0.73995 -3.68016,-1.52526 -5.69202,-1.68665 0.27687,5.96137 -2.66337,10.95449 -6.92281,15.92849 l -5.37781,6.20123 c -5.41567,3.48582 -11.67477,6.60251 -18.2643,8.81841 -1.42255,-0.13316 -5.03642,-3.19853 -6.43203,-3.40168 -0.42722,-0.0622 -3.88919,-0.10793 -3.88919,-0.10793 l -0.032,1.73152 -2.21904,-0.0485 c -1.31808,0.78341 -1.07689,1.95665 -1.09121,3.066 -2.44646,-0.46914 -4.89292,-0.58084 -7.33938,-0.53966 -1.10031,-0.42027 -1.89146,-0.68596 -3.7849,-1.5028 0.0117,0.82782 0.61501,1.46865 0.68689,2.72207 -1.37533,2.86688 -2.82793,5.38014 -3.27823,7.77936 l -3.88919,-2.27845 -2.37451,-0.005 0.0119,-2.87027 -8.39032,0.41621 c -0.93391,-1.47995 -0.6815,-3.55305 -0.99977,-5.34082 -2.31073,-0.7163 -4.75109,-1.95111 -7.23145,-3.3459 l -0.84696,1.8101 c -0.42222,0.62073 -1.01913,0.99431 -2.65309,0.18549 -1.31351,-0.23527 -13.66549,-5.27538 -22.7796,-8.36722 l -1.68302,0.78293 c -6.432,-3.63553 -12.7407,-5.42172 -19.09573,-7.90281 -0.83599,0.75759 -1.05,2.24082 -1.40312,3.56176 -0.87026,-0.70458 -1.77958,-1.55067 -2.33886,-1.56683 l -0.48027,-3.34456 -0.61792,-62.30403 c -0.56789,-9.13969 -4.45333,-15.28068 -10.75371,-17.6988" />
    <path
       inkscape:label="wilanow"
       id="path26627"
       style="display:inline;fill-opacity:1;fill-rule:evenodd;stroke:none;stroke-width:3;stroke-linecap:butt;stroke-linejoin:round;stroke-miterlimit:4;stroke-opacity:1;"
       d="m 639.34078,1016.607 c -0.71089,0.2986 -1.15738,0.5119 -2.45898,-0.7284 -1.8871,-2.0403 -3.05123,-4.8036 -4.36166,-7.4206 -1.95282,-0.8271 0.26629,-2.1663 -1.47181,-3.0902 -1.7381,-0.9238 -0.64643,-1.8976 -0.77965,-2.8702 -0.56845,-2.55168 -1.56611,-4.79674 -2.84418,-6.8415 l -19.8201,-2.81707 c 0.93416,-1.62103 8.64747,-0.73672 13.78352,-0.80488 1.41772,0.8512 2.80825,1.26735 4.125,0.50305 -0.73737,-3.91683 -4.71579,-7.32901 -6.2378,-11.16766 -1.41953,0.36883 -3.03073,0.67361 -4.96271,0 -1.93199,-0.67361 -3.50031,-0.11277 -5.25047,0 1.07054,-0.80536 2.13261,-1.61226 2.1128,-2.61586 -0.40845,-1.84012 -2.39248,-3.48825 -3.67095,-5.2317 l 6.94468,5.77541 c 1.87804,-0.73098 3.45165,-0.90444 5.3297,-0.74492 0.30987,0.12395 -1.68545,-5.97789 -2.51524,-5.83536 -2.04361,0.35102 -5.21234,-1.6638 -4.52744,-2.34113 1.42138,0.0992 3.02702,0.75717 4.00249,0.003 -0.75158,-3.2604 -3.80274,-6.72413 -4.80736,-10.03647 -1.19128,0.11483 -2.9401,1.48413 -3.01829,-0.90548 0.78637,-0.64468 1.26972,-1.33986 0.84554,-2.1863 -1.22926,-0.50283 -1.74697,-1.7172 -2.51524,-2.68101 -1.95443,1.24301 -3.62109,-1.07535 -7.30906,-1.60976 1.88009,-0.2222 3.43913,-0.83158 4.5191,-1.34337 -0.89316,-0.51004 -2.13211,-0.7686 -1.97936,-2.0393 0.61123,-1.16643 1.21136,-2.00429 2.61585,-2.91768 -2.42611,-2.91838 -4.08501,-4.42874 -5.63414,-7.04268 -0.90782,0.71446 -1.80778,1.50751 -2.61585,3.21951 l -1.24536,-2.86607 c 0.74195,-0.18459 1.59717,-0.2206 2.15085,-1.15831 0.40463,-2.44708 -0.0283,-3.30305 -1.11067,-3.58232 -1.78054,-0.45943 -1.98151,-3.4147 -0.007,-4.85273 -0.96836,-1.17983 -0.97108,-2.77827 -0.97054,-3.9581 -0.80403,-0.75549 -1.00975,-1.75031 -1.33254,-2.6983 -1.48334,-0.28664 -2.42601,0.10254 -2.69196,1.33764 -2.41463,-2.19861 -4.7912,-0.87917 -7.24389,0 0.93124,-1.15724 1.88749,-2.23529 7.92627,-2.89057 0.72525,-0.28484 -0.10449,-3.56001 -1.71297,-8.00498 -1.51012,-0.6475 -2.07601,1.80748 -2.93123,3.31178 0.42815,-1.25888 1.0603,-3.04616 -0.0871,-3.71422 -0.98854,0.37548 -2.32578,1.20497 -3.10419,0.1937 -0.79693,-1.03534 -1.7266,-0.47602 -2.62795,-0.2646 -0.89856,-2.53762 -2.6809,-4.92795 -4.1276,-7.37421 -0.81953,0.85449 -2.40774,0.55596 -3.79606,0.55726 l -0.21738,-7.43416 c -3.37003,-6.52544 -6.53259,-12.90727 -10.08546,-19.2081 l 5.1608,-3.08918 -5.04664,-8.05138 -1.05771,0.80488 c -0.56834,-1.83002 -1.24235,-2.39206 -1.90897,-3.04279 l 0.79393,-0.81583 c -0.94096,-0.56725 -1.79765,-2.14773 -2.34604,-3.40198 -0.69294,-1.60275 -1.88515,-1.66628 -2.31568,-2.93256 -0.91731,-2.05176 -1.50637,-2.64323 -2.92466,-4.19402 l -1.40854,0.90549 c 0.28389,-1.52888 0.32874,-3.11751 -0.19601,-4.84855 -1.25198,-0.92308 -2.10596,0.14702 -2.58822,-0.29349 -1.47647,-0.91164 -1.15684,-1.58885 -1.68899,-2.68935 l -0.45665,-5.04664 c -1.28343,-4.09736 -2.56593,-5.03713 -3.47234,-8.97876 -1.31686,-3.58298 -2.08755,-4.59 -3.18977,-7.006 -2.23274,-4.89405 -4.19618,-8.99113 -5.34015,-7.94417 -0.17945,-3.08127 -1.54662,-4.41119 -2.78735,-6.1153 -2.22584,-3.40448 -3.77023,-4.93499 -5.63437,-7.3448 l -5.63391,-7.34421 c -0.78806,0.067 -0.98096,-0.0134 -0.92999,2.7626 -0.71608,0.072 -1.31978,-1.21061 -2.06146,-2.65391 0.14436,-0.99326 0.89064,-1.46314 1.78413,-1.8571 -2.51274,-2.38109 -3.3763,-4.76219 -4.62804,-7.14328 0.57071,-1.55229 10.32845,-3.54206 15.89632,-5.33231 4.39329,-0.58818 8.78657,-0.62758 13.17986,-2.71646 4.12571,-0.75259 11.6796,0.67638 18.61278,1.71036 1.36259,-0.20742 1.7547,-0.90008 1.50914,-1.91158 L 552.97338,762.443 c 1.78234,-1.37157 3.91969,-2.49462 8.3506,-2.01219 6.55843,-4.49143 11.63072,-10.76623 16.90211,-16.8021 l 17.10394,-17.00273 c 6.76014,5.80397 17.83878,11.87108 19.21644,15.39327 l 10.4634,-1.40854 c 0.61459,-5.61956 -0.14426,-18.10086 5.43292,-19.61887 l 3.11889,-0.40244 c 5.61456,-5.39615 2.6305,-10.42656 3.21951,-15.79571 0.53265,-5.10066 3.98285,-7.28377 8.52004,-8.3799 0.78533,-3.50477 2.26542,-5.62003 4.76,-6.14125 1.16846,4.18578 2.65676,8.63801 4.57344,13.737 7.40949,19.7116 19.93926,35.0873 35.39445,46.6417 15.19819,9.1463 44.26599,21.6616 48.90788,64.7739 1.51606,16.5328 13.46014,31.1571 24.72984,35.7636 11.42374,4.6696 22.25867,13.05536 24.78881,27.53846 -7.23479,1.9878 -13.85664,3.79654 -21.52869,4.04944 -0.93648,2.7898 -2.15656,3.3107 -3.26897,4.693 1.47469,5.2458 1.12228,6.8373 0.89323,8.6756 -3.08578,1.2484 -4.77717,0.5852 -7.49249,0.7222 l -7.51052,7.7929 -5.5088,10.7574 c -2.94162,3.7193 -7.27227,5.9936 -11.1808,7.9724 l 0.37172,4.505 c -7.5341,6.7345 -12.57332,16.1024 -13.08612,30.2483 -0.39423,2.0544 -3.76176,4.1482 -6.00674,0.2145 0,0 0.13754,-2.594 -2.15591,-5.7189 -2.09191,-2.8504 -3.86679,-7.5138 -3.86679,-7.5138 l -6.36417,5.1607 c -4.25469,17.1642 -11.03521,29.1221 -24.81548,26.6519 l -17.15149,15.8803 2.59028,5.2166 z" />
    <path
       inkscape:label="ursynow"
       id="path10101"
       style="display:inline;fill-opacity:1;fill-rule:evenodd;stroke:none;stroke-width:3;stroke-linecap:butt;stroke-linejoin:round;stroke-miterlimit:4;stroke-opacity:1;"
       d="m 639.60473,1016.9906 2.38202,0.5358 5.30234,8.8364 -4.50625,0.4652 c -3.76274,2.099 -10.44554,4.4972 -17.06918,4.0505 -9.19459,-0.6201 -16.12297,5.0934 -17.39513,6.2159 -2.58421,2.2803 -3.2501,6.3176 -6.56822,11.6622 -1.8032,2.9045 -5.31105,6.0778 -7.61434,6.7744 -4.52485,1.3683 -8.04664,-2.3695 -8.04664,-2.3695 l -48.76432,-34.3963 -9.89365,-2.6529 -8.55922,-6.2147 -0.6007,-1.9225 -10.45655,-8.60646 -4.28244,3.18236 -0.66085,3.2599 -15.35445,16.6332 1.23678,2.2025 -39.75538,0.8475 -0.35543,8.8017 -56.94976,0.8733 c -6.26757,1.4569 -11.46164,0.198 -17.25386,-1.2881 l 0.90315,-4.7293 c 0,0 -7.09002,-1.5119 -6.593,-2.6206 0.64358,-2.5743 5.1255,-17.8231 5.1255,-17.8231 l -5.32265,-2.1899 c -1.31555,-0.9355 -1.32792,-3.0953 0.0507,-5.5315 2.36663,-4.25296 4.29422,-7.58876 6.79672,-12.80946 l -5.10234,-15.8518 c 0.42723,-3.0416 1.92075,-4.3831 3.74685,-6.5803 1.98039,-1.9343 3.37696,-3.8583 4.99181,-6.7488 l -14.03597,-0.876 c 0.46324,-1.2548 -5.27893,-13.8665 -7.55261,-15.3294 0.64358,-2.7888 0.57561,-17.899 0.57561,-17.899 l 12.22802,-24.027 c -1.37358,-1.95525 -2.69834,-3.68605 -3.93564,-5.32135 l 2.29953,-6.42345 c 0.16802,-1.2837 3.76493,0.0888 11.7124,0.2712 l -4.30777,-64.1397 c 0.56713,-4.5285 -1.80553,-6.2842 -1.18506,-10.6543 0.0447,-7.4615 -0.64061,-18.9814 -0.453,-20.8661 0.52131,-5.23674 0.90979,-10.27649 0.53275,-14.36602 0.57508,0.16007 1.4844,1.00616 2.35466,1.71074 0.35312,-1.32094 0.56713,-2.80417 1.40312,-3.56176 6.35503,2.48109 12.66373,4.26728 19.09573,7.90281 l 1.68302,-0.78293 c 9.11411,3.09184 21.46609,8.13195 22.7796,8.36722 1.63396,0.80882 2.23087,0.43524 2.65309,-0.18549 l 0.84696,-1.8101 c 2.48036,1.39479 4.92072,2.6296 7.23145,3.3459 0.31827,1.78777 0.0659,3.86087 0.99977,5.34082 l 8.39032,-0.41621 -0.0119,2.87027 2.37451,0.005 3.88919,2.27845 c 0.4503,-2.39922 1.9029,-4.91248 3.27823,-7.77936 -0.0719,-1.25342 -0.6752,-1.89425 -0.68689,-2.72207 1.89344,0.81684 2.68459,1.08253 3.7849,1.5028 2.44646,-0.0412 4.89292,0.0705 7.33938,0.53966 0.0143,-1.10935 -0.22687,-2.28259 1.09121,-3.066 l 2.21904,0.0485 0.032,-1.73152 c 0,0 3.46197,0.0457 3.88919,0.10793 1.39561,0.20315 5.00948,3.26852 6.43203,3.40168 6.58953,-2.2159 12.84863,-5.33259 18.2643,-8.81841 l 5.37781,-6.20123 c 4.25944,-4.974 7.19968,-9.96712 6.92281,-15.92849 2.01186,0.16139 3.84546,0.9467 5.69202,1.68665 1.15936,1.89588 2.41145,3.85817 4.73713,4.92097 l 14.67283,14.13493 c -5.57382,1.84186 -15.33156,3.83163 -15.90227,5.38392 1.25174,2.38109 2.1153,4.76219 4.62804,7.14328 -0.89349,0.39396 -1.63977,0.86384 -1.78413,1.8571 0.74168,1.4433 1.34538,2.72595 2.06146,2.65391 -0.051,-2.77596 0.14193,-2.69562 0.92999,-2.7626 l 5.63391,7.34421 c 1.86414,2.40981 3.40853,3.94032 5.63437,7.3448 1.24073,1.70411 2.6079,3.03403 2.78735,6.1153 1.14397,-1.04696 3.10741,3.05012 5.34015,7.94417 1.10222,2.416 1.87291,3.42302 3.18977,7.006 0.90641,3.94163 2.18891,4.8814 3.47234,8.97876 l 0.45665,5.04664 c 0.53215,1.1005 0.21252,1.77771 1.68899,2.68935 0.48226,0.44051 1.33624,-0.62959 2.58822,0.29349 0.52475,1.73104 0.4799,3.31967 0.19601,4.84855 l 1.40854,-0.90549 c 1.41829,1.55079 2.00735,2.14226 2.92466,4.19402 0.43053,1.26628 1.62274,1.32981 2.31568,2.93256 0.54839,1.25425 1.40508,2.83473 2.34604,3.40198 l -0.79393,0.81583 c 0.66662,0.65073 1.34063,1.21277 1.90897,3.04279 l 1.05771,-0.80488 5.04664,8.05138 -5.1608,3.08918 c 3.55287,6.30083 6.71543,12.68266 10.08546,19.2081 l 0.21738,7.43416 c 1.38832,-10e-4 2.97653,0.29723 3.79606,-0.55726 1.4467,2.44626 3.22904,4.83659 4.1276,7.37421 0.90135,-0.21142 1.83102,-0.77074 2.62795,0.2646 0.77841,1.01127 2.11565,0.18178 3.10419,-0.1937 1.14736,0.66806 0.51521,2.45534 0.0871,3.71422 0.85522,-1.5043 1.42111,-3.95928 2.93123,-3.31178 1.60848,4.44497 2.43822,7.72014 1.71297,8.00498 -6.03878,0.65528 -6.99503,1.73333 -7.92627,2.89057 2.45269,-0.87917 4.82926,-2.19861 7.24389,0 0.26595,-1.2351 1.20862,-1.62428 2.69196,-1.33764 0.32279,0.94799 0.52851,1.94281 1.33254,2.6983 -5.4e-4,1.17983 0.002,2.77827 0.97054,3.9581 -1.97453,1.43803 -1.77356,4.3933 0.007,4.85273 1.08233,0.27927 1.5153,1.13524 1.11067,3.58232 -0.55368,0.93771 -1.4089,0.97372 -2.15085,1.15831 l 1.24536,2.86607 c 0.80807,-1.712 1.70803,-2.50505 2.61585,-3.21951 1.54913,2.61394 3.20803,4.1243 5.63414,7.04268 -1.40449,0.91339 -2.00462,1.75125 -2.61585,2.91768 -0.15275,1.2707 1.0862,1.52926 1.97936,2.0393 -1.07997,0.51179 -2.63901,1.12117 -4.5191,1.34337 3.68797,0.53441 5.35463,2.85277 7.30906,1.60976 0.76827,0.96381 1.28598,2.17818 2.51524,2.68101 0.42418,0.84644 -0.0592,1.54162 -0.84554,2.1863 0.0782,2.38961 1.82701,1.02031 3.01829,0.90548 1.00462,3.31234 4.05578,6.77607 4.80736,10.03647 -0.97547,0.75456 -2.58111,0.0966 -4.00249,-0.003 -0.6849,0.67733 2.48383,2.69215 4.52744,2.34113 0.82979,-0.14253 2.82511,5.95931 2.51524,5.83536 -1.87805,-0.15952 -3.45166,0.0139 -5.3297,0.74492 l -6.94468,-5.77541 c 1.27847,1.74345 3.2625,3.39158 3.67095,5.2317 0.0198,1.0036 -1.04226,1.8105 -2.1128,2.61586 1.75016,-0.11277 3.31848,-0.67361 5.25047,0 1.93198,0.67361 3.54318,0.36883 4.96271,0 1.52201,3.83865 5.50043,7.25083 6.2378,11.16766 -1.31675,0.7643 -2.70728,0.34815 -4.125,-0.50305 -5.13605,0.0682 -12.84936,-0.81615 -13.78352,0.80488 l 19.8201,2.81707 c 1.27807,2.04476 2.27573,4.28982 2.84418,6.84152 0.13322,0.9726 -0.95845,1.9464 0.77965,2.8702 1.7381,0.9239 -0.48101,2.2631 1.47181,3.0902 1.31043,2.617 2.47456,5.3803 4.36166,7.4206 1.3016,1.2403 1.87907,0.8787 2.72293,1.112 z" />
  </g>
  <g
     inkscape:label="layer_black_border"
     id="layer2"
     style="display:inline;opacity:1"
     transform="translate(30.7708,-317.1503)">
    <path
       id="path2067"
       style="opacity:1;fill:none;fill-rule:evenodd;stroke:#000000;stroke-width:4;stroke-linecap:butt;stroke-linejoin:round;stroke-miterlimit:4;stroke-dasharray:none;stroke-opacity:1"
       d="m 140.39788,497.6155 -20.38379,7.50563 -6.4738,-8.83829 -3.53828,5.59879 -4.14699,1.80161 -1.14129,-4.38648 c -8.097176,3.28957 -16.851759,5.0452 -25.867897,6.19054 -12.478283,14.3998 -12.264098,22.17506 -14.298944,31.04598 -10.196435,0.0839 -21.855758,-0.53796 -30.380329,-4.82227 -1.449213,-0.58878 -2.803669,0.90804 -2.33391,1.52194 3.916112,5.11775 11.367201,15.18243 10.893448,18.85216 -0.428481,3.31905 -9.885663,39.06043 -9.885663,39.06043 l 1.92891,10.00621 -2.170024,61.12233 c 3.925581,0.56495 8.010377,0.40199 12.537914,2.77281 l -6.389514,56.1795 C 27.573368,739.81155 16.451509,758.40983 4.0273463,776.68254 l 68.2351817,12.65847 c 4.57384,15.28017 -1.855825,35.89538 -7.353969,56.05894 l -22.061905,0.24111 c -6.830977,6.42785 -12.831334,10.19772 -18.083528,11.57346 v 13.62293 l 5.545615,2.53169 -1.808353,30.13921 -3.616705,0.24112 -5.183945,27.37598 -0.789771,2.41797 -22.8020917,5.01062 c -14.8344073,5.20144 -20.6054653,14.25962 -20.6154563,25.76932 -1.277808,1.75699 8.440931,34.28888 10.513883,33.60319 1.723864,0.85093 1.001545,15.85775 0.328865,15.99225 l 24.409682,-10.6322 0.206155,30.9231 15.667746,-0.4123 c 1.254685,1.0285 2.653535,1.4803 4.5354,0 l 52.157104,-0.2061 2.886164,-5.5662 14.843132,-0.6185 7.2154,-0.8246 0.82462,-4.1231 2.47386,-2.0615 2.2677,1.8554 9.27695,-2.0616 -8.65849,24.5324 12.57543,4.3292 0.41231,3.0924 3.71078,0.6184 1.64924,2.2677 0.20615,23.0893 h 4.94771 l 9.0708,14.4309 -2.68001,3.9169 14.43082,7.8339 -0.61846,3.0923 c 7.53096,7.0836 18.14554,14.2759 30.97964,18.4861 3.95335,1.2969 7.52253,2.211 11.4639,5.7878 l 13.34628,2.9125 0.23425,12.1976 c 14.52517,13.4202 27.55798,26.9186 50.41375,32.179 8.08851,5.1019 15.79836,11.448 22.5253,21.0236 l -12.22802,24.027 c 0,0 0.068,15.1102 -0.57561,17.899 2.27368,1.4629 8.01585,14.0746 7.55261,15.3294 l 14.03597,0.876 c -1.61485,2.8905 -3.01142,4.8145 -4.99181,6.7488 -1.8261,2.1972 -3.31962,3.5387 -3.74685,6.5803 l 5.10234,15.8518 c -2.5025,5.2207 -4.43009,8.5565 -6.79672,12.8095 -1.37867,2.4362 -1.3663,4.596 -0.0507,5.5315 l 5.32265,2.1899 c 0,0 -4.48192,15.2488 -5.1255,17.8231 -0.49702,1.1087 6.593,2.6206 6.593,2.6206 l -0.90315,4.7293 c 5.79222,1.4861 10.98629,2.745 17.25386,1.2881 l 56.94976,-0.8733 0.35543,-8.8017 39.75538,-0.8475 -1.23678,-2.2025 15.35445,-16.6332 0.66085,-3.2599 4.28244,-3.1824 10.45655,8.6065 0.6007,1.9225 8.55922,6.2147 9.89365,2.6529 48.76432,34.3963 c 0,0 3.52179,3.7378 8.04664,2.3695 2.30329,-0.6966 5.81114,-3.8699 7.61434,-6.7744 3.31812,-5.3446 3.98401,-9.3819 6.56822,-11.6622 1.27216,-1.1225 8.20054,-6.836 17.39513,-6.2159 6.62364,0.4467 13.30644,-1.9515 17.06918,-4.0505 l 4.50625,-0.4652 -5.30234,-8.8364 -2.53113,-1.0318 22.91829,-18.4599 -2.59028,-5.2166 17.15149,-15.8803 c 13.78027,2.4702 20.56079,-9.4877 24.81548,-26.6519 l 6.36417,-5.1607 c 0,0 1.77488,4.6634 3.86679,7.5138 2.29345,3.1249 2.15591,5.7189 2.15591,5.7189 2.24498,3.9337 5.61251,1.8399 6.00674,-0.2145 0.5128,-14.1459 5.55202,-23.5138 13.08612,-30.2483 l -0.37172,-4.505 c 3.90853,-1.9788 8.23918,-4.2531 11.1808,-7.9724 l 5.5088,-10.7574 7.51052,-7.7929 c 2.71532,-0.137 4.40671,0.5262 7.49249,-0.7222 0.22905,-1.8383 0.58146,-3.4298 -0.89323,-8.6756 1.11241,-1.3823 2.33249,-1.9032 3.26897,-4.693 7.67205,-0.2529 14.24643,-1.9667 21.33575,-3.9678 9.66786,0.8582 18.81199,-2.4609 27.56036,-7.1196 l 0.85811,-7.2939 28.31751,-8.152 1.50168,3.6469 62.42724,-9.0101 c 14.94535,-11.816 29.89071,-19.078 44.83606,-26.6013 l 32.60804,22.0962 -2.35979,5.3632 19.09287,16.304 16.30402,-21.8817 -19.52192,-16.304 5.79222,-12.228 6.86485,-2.1453 3.2179,-12.6571 c 1.21448,-4.2746 -0.55448,-9.4985 6.86485,-11.7989 l 7.50843,-0.6436 0.8581,-2.3598 6.78192,-0.5697 c 0.82321,-4.2311 -2.67767,-5.6575 -7.50843,-6.2213 l -0.73371,-12.318 6.22128,0.429 0.32989,4.6528 1.98843,-0.1316 0.21453,-8.3665 -3.64695,-0.2145 -22.55774,-30.9333 c 5.96987,-3.0969 10.4872,-7.9796 13.0771,-13.6883 l -59.07592,-37.4195 5.61733,-7.54807 0.29746,-5.23157 c 2.90267,-1.77606 5.76739,-3.72292 8.36654,-6.86485 l 10.94085,-5.14864 c -1.01327,-1.99039 -2.52936,-4.1131 -6.43579,-6.86485 l -0.37137,-8.61351 c 4.80035,-4.37234 9.66013,-8.72591 17.31897,-12.19557 5.00635,-0.2374 10.4265,0.077 14.58781,-1.28716 -13.01822,-22.42815 -19.58753,-32.13025 -27.12951,-47.80698 l -2.26064,-0.0324 2.3598,-35.39689 c 3.9948,-4.82099 7.71974,-9.67796 9.43917,-14.80233 l 0.42905,-10.29728 h -5.14864 l -6.96401,7.61478 c -8.17529,1.80425 -16.15155,2.4143 -23.71329,0.53723 l -3.00338,-33.25162 36.68405,-2.35979 1.93074,-28.96109 -4.29053,0.21452 -5.38841,-35.39688 -139.59912,25.66025 -25.2889,-3.51353 c 7.3871,-1.29083 8.5264,-6.38257 10.85793,-10.56229 l 0.64358,-27.24487 c -2.82955,-4.23825 -5.49893,-9.85348 -8.72398,-9.48277 -2.96128,0.3404 -16.05066,-18.41583 -24.07335,-27.63034 l 1.70471,-6.75172 1.72772,-40.2296 -7.29391,-8.36654 -10.07373,4.24907 -8.63155,18.77919 -13.04465,5.28925 c -1.1167,2.47679 -1.92643,5.19477 -5.111,6.04682 -5.69394,1.4908 -5.86115,10.84895 -10.12039,11.68498 l -96.21593,18.88587 -5.80678,0.28091 -14.01275,-46.33775 h -8.60449 c -0.73518,-2.93186 -1.39529,-5.86373 -1.07263,-8.79559 -7.3719,-8.94106 -12.53368,-18.41413 -17.3523,-26.42676 -2.82131,-4.6914 -3.75198,-10.16498 -5.57648,-15.26987 -1.44756,-4.05023 -3.25549,-7.60368 -4.53063,-11.50596 l 4.93411,-1.71621 -5.27798,-18.30667 c -3.46431,-17.62825 -7.41486,-35.51434 -13.01447,-52.99008 l 27.5171,-7.43451 -7.93749,-30.89183 3.28461,-0.38039 c -0.12484,-0.86334 0.96059,-3.23395 -1.46298,-3.23 l -3.19172,-6.31553 -0.27941,-11.31222 -6.74948,-0.0162 c -0.83469,-7.60922 -1.98503,-15.02116 -4.04356,-21.86549 l 11.66737,-0.89957 -9.01012,-39.38996 -7.59136,-0.0415 -5.63538,-19.73645 1.98843,-2.14526 c -0.91082,-4.06557 -7.11175,-27.62937 -7.93749,-28.74656 l -20.80908,5.57769 -8.58106,0.21452 -0.21453,12.01349 -16.9476,-1.28716 -10.94085,4.29054 -0.21453,-5.36317 -1.93074,-2.78885 -8.36654,-0.21452 -7.762,5.21168 -24.61981,3.18962 -7.07695,-11.36299 -5.88085,5.38246 c -0.72455,7.85073 -2.19196,17.9056 -3.82417,22.46821 l -4.54856,3.24804 -1.69448,-1.49513 -8.27305,2.49188 -18.83865,-1.59481 -2.54446,-6.08019 c 1.32236,-7.73183 -1.88132,-14.45472 -4.93119,-21.13118 -5.01699,1.12697 -9.45711,2.00833 -14.5318,2.31334 -2.93435,1.91606 -5.07844,3.5 -6.99807,5.56102 -8.85451,-0.0698 -6.50659,-1.71086 -9.05003,-3.04285 -0.8713,-0.30281 -2.72485,0.10328 -3.77937,0.723 -2.1085,1.23913 -8.89656,4.6058 -14.17713,6.31431 -7.66312,2.05747 -11.01125,4.11495 -13.66102,6.17242 l -18.34027,-0.19935 -11.36299,-33.78994 -29.40423,0.89707 -2.49188,5.18312 -17.64254,-0.0997 -0.29902,2.19285 -2.99026,-2.19285 -9.36949,18.24059 -9.96753,-5.6815 8.45122,17.34862 c 0.84556,2.01429 -0.28798,2.28232 -2.0406,2.0041 l -9.60024,-5.79687 -6.75163,6.47342 -3.85294,-3.43405 -5.48988,-2.63556 -6.46394,0.23623 -2.64888,9.40599 -24.22112,15.57054 c 6.62509,9.09948 12.8473,18.29967 20.62222,27.11169 4.3504,6.94361 8.84745,14.0336 9.74189,25.03421 l -1.83193,37.07923 -5.6344,10.82263 z" />
  </g>
  <g
     inkscape:label="layer_white_borders"
     id="layer7"
     style="display:inline;opacity:1"
     transform="translate(30.7708,-317.1503)">
    <path
       id="path2061"
       style="display:inline;opacity:1;fill:none;fill-rule:evenodd;stroke:#ffffff;stroke-width:3;stroke-linecap:butt;stroke-linejoin:round;stroke-miterlimit:4;stroke-dasharray:none;stroke-opacity:1"
       d="m 147.59823,475.32528 c -0.24576,28.14968 13.41792,50.23982 38.69828,61.14441 4.68723,2.01632 13.37024,8.19786 22.85963,22.00028 4.57655,6.65664 5.81652,15.87224 13.61889,24.55409 14.84318,14.49081 28.13279,21.08847 49.58615,25.73647 23.80104,5.14172 59.36359,33.73666 60.17305,81.40993 0.29746,17.49372 6.46312,37.53145 15.4759,52.69343 5.18544,8.72332 10.97602,18.45887 17.29255,30.43908 5.15413,9.52503 12.11917,17.39677 21.02493,24.32452 8.09428,7.21681 15.50218,14.74464 21.46408,23.38597 5.13858,5.81788 13.74114,20.41403 21.01228,36.02881 3.06207,6.57578 13.47579,30.71389 40.828,38.22514 11.58658,3.18182 15.48515,2.13671 23.10432,1.38989 2.53564,-0.24854 6.94081,-0.35288 10.52902,0.0523 12.01787,1.35703 23.86922,5.09533 35.43176,13.60131 15.63714,13.07449 27.15738,32.34905 26.34858,56.27342 -0.53915,14.76006 1.56355,23.55231 6.44616,36.54157 7.40949,19.7116 19.93926,35.0873 35.39445,46.6417 15.19819,9.1463 44.26599,21.6616 48.90788,64.7739 1.51606,16.5328 13.46014,31.1571 24.72984,35.7636 11.42374,4.6696 22.2112,13.1503 24.88682,27.6467" />
    <path
       id="path2063"
       style="display:inline;opacity:1;fill:none;fill-rule:evenodd;stroke:#ffffff;stroke-width:3;stroke-linecap:butt;stroke-linejoin:round;stroke-miterlimit:4;stroke-dasharray:none;stroke-opacity:1"
       d="m 337.96984,926.89638 -4.58116,-24.35248 -0.36167,-22.66469 -15.67239,-38.69875 -5.78673,-23.62915 -30.75805,-57.8378 -2.52259,-9.88849 -0.68305,-8.24217" />
    <path
       id="path2065"
       style="display:inline;opacity:1;fill:none;fill-rule:evenodd;stroke:#ffffff;stroke-width:3;stroke-linecap:butt;stroke-linejoin:round;stroke-miterlimit:4;stroke-dasharray:none;stroke-opacity:1"
       d="m 280.2231,994.64934 13.38182,-66.06516 23.26747,4.21949 46.89662,-13.1407 0.24111,-1.32612 5.90729,-1.56724 1.56724,1.44668 1.68779,-0.60278 5.66617,6.1484 2.5317,7.83619 8.31842,9.64455 8.07731,-0.36167 4.70172,0.36167 3.85782,-10.24733 19.65077,-0.36167 6.02784,-6.02785 v -3.13447 l -1.80835,-8.43898 6.02784,-1.32613 0.96445,2.53169 11.09123,-3.13447 -0.48222,-2.5317 16.39573,-3.97837 5.78673,-8.6801" />
    <path
       id="path2069"
       style="display:inline;opacity:1;fill:none;fill-rule:evenodd;stroke:#ffffff;stroke-width:3;stroke-linecap:butt;stroke-linejoin:round;stroke-miterlimit:4;stroke-dasharray:none;stroke-opacity:1"
       d="m 573.71601,686.40456 4.076,12.01349 -1.93074,1.50168 v 7.93749 h -2.14526 l 6.00674,32.39351" />
    <path
       id="path2071"
       style="display:inline;opacity:1;fill:none;fill-rule:evenodd;stroke:#ffffff;stroke-width:3;stroke-linecap:butt;stroke-linejoin:round;stroke-miterlimit:4;stroke-dasharray:none;stroke-opacity:1"
       d="m 631.32051,818.88709 -4.06776,-2.87551 c -1.09079,-1.89233 -0.60336,-2.97516 0.11139,-4.32349 l 2.24016,-3.32928 0.10315,-7.18252 -40.11648,-49.12659 0.21453,-11.36991 -67.14682,-2.78885 -11.79897,2.35979 -3.64695,-0.21452 -13.30065,3.86147 -19.30739,4.50506 -5.57769,6.4358 -18.44929,11.36991 -5.79222,2.35979 c -19.59707,11.66806 -24.87141,13.6521 -21.88171,35.39689 -3.26343,6.84273 -8.69743,11.949 -14.80233,16.51855" />
    <path
       id="path2073"
       style="display:inline;opacity:1;fill:none;fill-rule:evenodd;stroke:#ffffff;stroke-width:3;stroke-linecap:butt;stroke-linejoin:round;stroke-miterlimit:4;stroke-dasharray:none;stroke-opacity:1"
       d="m 494.77022,743.89768 c -26.38677,-10.86338 -52.77354,-20.14453 -79.16031,-33.03709 -9.18484,-2.98526 -14.69849,-8.06833 -19.95098,-13.30065 -19.47412,1.06255 -17.52485,-23.49334 -25.95771,-36.04047 l -0.21453,-21.88171 c -3.80736,-5.64333 -6.06329,-10.29943 -9.0176,-13.29891 -6.29417,-6.38059 -4.27818,-9.91633 -7.28642,-16.52029" />
    <path
       id="path1899"
       style="fill:none;fill-rule:evenodd;stroke:#ffffff;stroke-width:3;stroke-linecap:butt;stroke-linejoin:round;stroke-miterlimit:4;stroke-dasharray:none;stroke-opacity:1"
       d="m 45.370434,665.72183 h 8.737384 l 1.568249,-3.36053 8.065278,0.44807 10.305632,12.32195 6.048959,0.89615 36.965854,15.01037 14.78634,6.72107 50.85606,16.35459 6.27299,7.39317 21.50741,8.96142" />
    <path
       id="path1901"
       style="fill:none;fill-rule:evenodd;stroke:#ffffff;stroke-width:3;stroke-linecap:butt;stroke-linejoin:round;stroke-miterlimit:4;stroke-dasharray:none;stroke-opacity:1"
       d="m 325.4148,861.97693 -25.31601,8.51334 c -2.091,-0.35731 -4.182,0.82923 -6.273,2.24036 l -16.80266,6.04896 c -3.88328,1.72181 -7.76656,3.75413 -11.64984,4.92878 -5.45153,2.27625 -10.90306,6.28061 -16.35459,9.63353 l -1.79229,-1.79229 -9.18545,3.58457 -4.92878,2.01631 -7.39318,1.56826 c -0.74976,2.98416 -2.31591,5.15193 -4.25667,6.9451 -1.03949,3.5144 -4.22724,5.4176 -7.61721,7.16913 h -16.35459 c -2.97238,-1.84416 -6.70717,-1.52482 -12.77002,3.80861 -3.21118,2.22469 -6.42235,3.18673 -9.63353,4.25667 -8.00027,1.2827 -15.14463,4.70516 -21.95548,8.96142 -19.24454,-1.20005 -11.16887,-8.70477 -8.28931,-15.01038 h -9.40949 l -4.92878,-3.36053 h -8.06528" />
    <path
       id="path1903"
       style="fill:none;fill-rule:evenodd;stroke:#ffffff;stroke-width:3;stroke-linecap:butt;stroke-linejoin:round;stroke-miterlimit:4;stroke-dasharray:none;stroke-opacity:1"
       d="m 174.71813,921.1223 c -1.21636,4.26643 -1.45543,10.53955 0.44807,12.99406 1.87337,2.41565 5.38362,7.41336 9.07194,14.13948 3.70648,6.75925 6.60808,9.42195 9.28012,12.40903 2.67204,2.98708 6.94581,4.6295 11.18085,6.20465 25.21669,8.64234 50.22585,18.52981 75.23648,28.40852 6.30038,2.41812 10.18582,8.55916 10.75371,17.69876 l 0.60823,62.3139 c 1.03917,4.7442 0.59454,10.9959 -0.0586,17.5568 -0.18761,1.8847 0.49769,13.4046 0.453,20.8661 -0.62047,4.3701 1.75219,6.1258 1.18506,10.6543 l 4.30777,64.1397 c -7.94747,-0.1824 -11.54438,-1.5549 -11.7124,-0.2712 l -2.17624,6.4012" />
    <path
       id="path1905"
       style="fill:none;fill-rule:evenodd;stroke:#ffffff;stroke-width:3;stroke-linecap:butt;stroke-linejoin:round;stroke-miterlimit:4;stroke-dasharray:none;stroke-opacity:1"
       d="m 537.90177,909.33266 8.46522,-8.68798 c 0.24488,-2.10462 1.39034,-3.12855 3.11876,-3.45292 l 50.90265,-53.24172 12.25228,-0.11139 c 5.82261,-0.51205 7.41071,-4.51133 8.24244,-9.13351 7.08987,-11.36442 14.8589,-21.37051 22.8338,-30.96486 1.16176,-0.59752 2.23508,-2.07949 3.67568,0.11139 l 5.34645,14.81412 3.23015,-0.11139 c 13.22076,-5.86388 28.81034,-9.95114 43.21713,-14.9255 0.62628,2.77216 2.57935,3.88584 4.34399,5.23506 l 2.896,-0.44553 20.49472,-6.23753 c 1.815,-1.91513 3.25892,-3.69111 7.35137,-6.46029 l 17.71011,-4.23261 c 0.20872,-4.08409 -1.63475,-8.16819 -3.45291,-12.25228 l 8.91075,-2.89599 0.6683,-5.68061 c 1.35964,-1.2497 2.6968,-2.65669 4.34399,-1.89353 2.01795,3.58958 1.6376,5.26051 2.33908,7.79691 1.10096,1.44041 2.19681,2.80422 3.00737,-0.11138 l -1.33661,-22.38826" />
    <path
       id="path1907"
       style="fill:none;fill-rule:evenodd;stroke:#ffffff;stroke-width:3;stroke-linecap:butt;stroke-linejoin:round;stroke-miterlimit:4;stroke-dasharray:none;stroke-opacity:1"
       d="m 883.77715,982.24473 -3.48103,-1.07109 -0.53554,-3.21326 -52.21544,-0.53553 c -1.04905,-8.99257 -1.6136,-17.34333 -0.53554,-27.04493 l 5.08766,-3.48103 c -3.07231,-4.8151 -6.66489,-13.27205 -9.10423,-13.65634 1.08503,-4.10583 1.67873,-8.21166 1.33886,-12.31749 l -4.28435,-8.30091 -3.48103,-0.26777 -12.85303,-23.29612 2.14218,-0.80332 c -1.08318,-7.3902 -0.22559,-17.69155 0,-27.04491 4.40559,-1.84241 7.72375,-4.77225 10.71085,-8.03315 l -9.372,-11.51417 c -9.58674,-5.74157 -18.07262,-6.52929 -26.2416,-5.89097 -7.92629,-5.46228 -15.52115,-11.256 -24.09944,-16.06629 -4.28434,-1.55983 -8.56868,-7.69055 -12.85303,-11.78195 l -9.90754,-12.04971" />
    <path
       id="path4713"
       style="fill:none;fill-rule:evenodd;stroke:#ffffff;stroke-width:3;stroke-linecap:butt;stroke-linejoin:round;stroke-miterlimit:4;stroke-dasharray:none;stroke-opacity:1"
       d="m 344.04311,735.80616 -6.06041,3.24664 c -1.48336,0.10389 -2.68427,0.49023 -3.24665,1.5151 -1.78085,0.99528 -3.83627,1.90818 -6.27685,2.70554 l -6.81796,0.32467 -2.27265,-1.73155 c -1.36838,-0.0264 -2.81827,-0.37878 -4.0042,0.32467 l -24.65612,-1.05746 -0.65216,-0.68329 -12.89393,0.87497 -16.79273,9.14933 -0.41449,1.00794 -6.27685,3.37043 c -0.77799,1.68109 -1.86573,1.50364 -2.92199,1.5151 -3.79936,1.07835 -5.64931,2.8065 -7.79194,4.43708 -2.47278,0.69121 -3.21171,0.082 -4.65353,10e-6 -0.7127,-1.05493 -1.84069,-1.69456 -2.81377,-2.4891 -2.56124,0.2843 -5.12249,-1.91122 -7.68373,-2.92198 -3.2863,-0.0397 -5.94801,0.54529 -7.79195,1.94799 -2.59732,1.69596 -3.66056,-0.30982 -5.73574,-0.32467 -4.77349,-0.036 -7.85107,-0.52881 -10.93038,-2.81376 -1.8983,-1.63513 -2.82675,-0.68397 -3.89597,-0.10822" />
    <path
       id="path4780"
       style="fill:none;fill-rule:evenodd;stroke:#ffffff;stroke-width:3;stroke-linecap:butt;stroke-linejoin:round;stroke-miterlimit:4;stroke-dasharray:none;stroke-opacity:1"
       d="m 556.4554,1316.1017 c -0.84386,-0.2333 -1.41486,0.1336 -2.71646,-1.1067 -1.8871,-2.0403 -3.05123,-4.8036 -4.36166,-7.4206 -1.95282,-0.8271 0.26629,-2.1663 -1.47181,-3.0902 -1.7381,-0.9238 -0.64643,-1.8976 -0.77965,-2.8702 -0.56845,-2.5517 -1.56611,-4.7967 -2.84418,-6.8415 l -19.8201,-2.8171 c 0.93416,-1.621 8.64747,-0.7367 13.78352,-0.8048 1.41772,0.8512 2.80825,1.2673 4.125,0.503 -0.73737,-3.9168 -4.71579,-7.329 -6.2378,-11.1677 -1.41953,0.3689 -3.03073,0.6737 -4.96271,0 -1.93199,-0.6736 -3.50031,-0.1127 -5.25047,0 1.07054,-0.8053 2.13261,-1.6122 2.1128,-2.6158 -0.40845,-1.8401 -2.39248,-3.4883 -3.67095,-5.2317 l 6.94468,5.7754 c 1.87804,-0.731 3.45165,-0.9044 5.3297,-0.7449 0.30987,0.1239 -1.68545,-5.9779 -2.51524,-5.8354 -2.04361,0.351 -5.21234,-1.6638 -4.52744,-2.3411 1.42138,0.099 3.02702,0.7572 4.00249,0 -0.75158,-3.2604 -3.80274,-6.7241 -4.80736,-10.0365 -1.19128,0.1149 -2.9401,1.4842 -3.01829,-0.9055 0.78637,-0.6446 1.26972,-1.3398 0.84554,-2.1863 -1.22926,-0.5028 -1.74697,-1.7172 -2.51524,-2.681 -1.95443,1.243 -3.62109,-1.0753 -7.30906,-1.6097 1.88009,-0.2222 3.43913,-0.8316 4.5191,-1.3434 -0.89316,-0.51 -2.13211,-0.7686 -1.97936,-2.0393 0.61123,-1.1664 1.21136,-2.0043 2.61585,-2.9177 -2.42611,-2.9184 -4.08501,-4.4287 -5.63414,-7.0427 -0.90782,0.7145 -1.80778,1.5076 -2.61585,3.2196 l -1.24536,-2.8661 c 0.74195,-0.1846 1.59717,-0.2206 2.15085,-1.1583 0.40463,-2.4471 -0.0283,-3.3031 -1.11067,-3.5823 -1.78054,-0.4595 -1.98151,-3.4147 -0.007,-4.8528 -0.96836,-1.1798 -0.97108,-2.7782 -0.97054,-3.9581 -0.80403,-0.7555 -1.00975,-1.7503 -1.33254,-2.6983 -1.48334,-0.2866 -2.42601,0.1026 -2.69196,1.3377 -2.41463,-2.1986 -4.7912,-0.8792 -7.24389,0 0.93124,-1.1573 1.88749,-2.2353 7.92627,-2.8906 0.72525,-0.2848 -0.10449,-3.56 -1.71297,-8.005 -1.51012,-0.6475 -2.07601,1.8075 -2.93123,3.3118 0.42815,-1.2589 1.0603,-3.0462 -0.0871,-3.7142 -0.98854,0.3755 -2.32578,1.2049 -3.10419,0.1937 -0.79693,-1.0354 -1.7266,-0.476 -2.62795,-0.2646 -0.89856,-2.5376 -2.6809,-4.928 -4.1276,-7.3742 -0.81953,0.8545 -2.40774,0.5559 -3.79606,0.5572 l -0.21738,-7.4341 c -3.37003,-6.5255 -6.53259,-12.9073 -10.08546,-19.2081 l 5.1608,-3.0892 -5.04664,-8.0514 -1.05771,0.8049 c -0.56834,-1.83 -1.24235,-2.3921 -1.90897,-3.0428 l 0.79393,-0.8158 c -0.94096,-0.5673 -1.79765,-2.1478 -2.34604,-3.402 -0.69294,-1.6028 -1.88515,-1.6663 -2.31568,-2.9326 -0.91731,-2.0517 -1.50637,-2.6432 -2.92466,-4.194 l -1.40854,0.9055 c 0.28389,-1.5289 0.32874,-3.1175 -0.19601,-4.8486 -1.25198,-0.923 -2.10596,0.1471 -2.58822,-0.2934 -1.47647,-0.9117 -1.15684,-1.5889 -1.68899,-2.6894 l -0.45665,-5.0466 c -1.28343,-4.0974 -2.56593,-5.0372 -3.47234,-8.9788 -1.31686,-3.583 -2.08755,-4.59 -3.18977,-7.006 -2.23274,-4.894 -4.19618,-8.9911 -5.34015,-7.9442 -0.17945,-3.0812 -1.54662,-4.4112 -2.78735,-6.1153 -2.22584,-3.4044 -3.77023,-4.935 -5.63437,-7.3448 l -5.63391,-7.3442 c -0.78806,0.067 -0.98096,-0.013 -0.92999,2.7626 -0.71608,0.072 -1.31978,-1.2106 -2.06146,-2.6539 0.14436,-0.9932 0.89064,-1.4631 1.78413,-1.8571 -2.51274,-2.3811 -3.3763,-4.7622 -4.62804,-7.1433 0.57071,-1.5523 10.32845,-3.542 15.89632,-5.3323 4.39329,-0.5882 8.78657,-0.6276 13.17986,-2.7164 4.12571,-0.7526 11.6796,0.6763 18.61278,1.7103 1.36259,-0.2074 1.7547,-0.9001 1.50914,-1.9116 l -11.97254,-19.2164 c 1.78234,-1.3716 3.91969,-2.4946 8.3506,-2.0122 6.55843,-4.4914 11.63072,-10.7662 16.90211,-16.8021 l 17.10394,-17.0027 c 6.76014,5.804 17.83878,11.8711 19.21644,15.3933 l 10.4634,-1.4086 c 0.61459,-5.6195 -0.14426,-18.1008 5.43292,-19.6189 l 3.11889,-0.4024 c 5.61456,-5.3961 2.6305,-10.4266 3.21951,-15.7957 0.53265,-5.10067 3.98285,-7.28378 8.52004,-8.37991 0.78533,-3.50477 2.26542,-5.62003 4.65982,-5.90667" />
    <path
       id="path5667"
       style="fill:none;fill-rule:evenodd;stroke:#ffffff;stroke-width:3;stroke-linecap:butt;stroke-linejoin:round;stroke-miterlimit:4;stroke-dasharray:none;stroke-opacity:1"
       d="M 448.51317,1083.5903 433.8344,1069.507 c -2.32568,-1.0628 -3.57777,-3.0251 -4.73713,-4.921 -1.84656,-0.7399 -3.68016,-1.5252 -5.69202,-1.6866 0.27687,5.9613 -2.66337,10.9545 -6.92281,15.9285 l -5.37781,6.2012 c -5.41567,3.4858 -11.67477,6.6025 -18.2643,8.8184 -1.42255,-0.1332 -5.03642,-3.1985 -6.43203,-3.4017 -0.42722,-0.062 -3.88919,-0.1079 -3.88919,-0.1079 l -0.032,1.7315 -2.21904,-0.049 c -1.31808,0.7834 -1.07689,1.9566 -1.09121,3.066 -2.44646,-0.4691 -4.89292,-0.5808 -7.33938,-0.5397 -1.10031,-0.4202 -1.89146,-0.6859 -3.7849,-1.5028 0.0117,0.8279 0.61501,1.4687 0.68689,2.7221 -1.37533,2.8669 -2.82793,5.3801 -3.27823,7.7794 l -3.88919,-2.2785 h -2.37451 l 0.0119,-2.8703 -8.39032,0.4162 c -0.93391,-1.4799 -0.6815,-3.553 -0.99977,-5.3408 -2.31073,-0.7163 -4.75109,-1.9511 -7.23145,-3.3459 l -0.84696,1.8101 c -0.42222,0.6207 -1.01913,0.9943 -2.65309,0.1855 -1.31351,-0.2353 -13.66549,-5.2754 -22.7796,-8.3672 l -1.68302,0.7829 c -6.432,-3.6355 -12.7407,-5.4217 -19.09573,-7.9028 -0.83599,0.7576 -1.05,2.2408 -1.40312,3.5618 -0.87026,-0.7046 -1.77958,-1.5507 -2.33886,-1.5669" />
    <path
       id="path7439"
       style="fill:none;fill-rule:evenodd;stroke:#ffffff;stroke-width:3;stroke-linecap:butt;stroke-linejoin:round;stroke-miterlimit:4;stroke-dasharray:none;stroke-opacity:1"
       d="m 515.40109,557.76437 -40.99283,0.17032 -7.34312,1.53533 c -1.05346,-5.66045 -3.82996,-3.16719 -3.47086,0.91 -7.80891,3.24165 -16.71466,7.89249 -21.17177,8.82723 -4.46893,0.93721 -43.05581,16.68371 -43.05581,16.68371 -2.96628,-3.37238 -5.77855,-0.88802 -6.03172,2.44651 -3.96445,2.17044 -7.6933,3.81081 -11.04863,4.61074 -5.23226,0.7632 -8.26235,-0.57738 -7.00008,4.32487 -3.24204,2.56496 -7.0461,4.2307 -11.04625,5.58269 -1.67743,-1.85703 -3.58371,-3.54002 -5.40996,-3.01586 -1.86934,-4.89474 -6.71973,-6.85763 -6.26161,1.87717 -0.40355,2.56205 -1.83935,5.1241 0,7.68615 -2.681,0.83367 -3.60471,3.45344 -7.97608,4.63969 -3.05511,0.82907 -4.92663,3.53511 -7.98417,4.59644 -2.03533,-0.18317 -4.93177,-0.0856 -6.2416,0.84885 -1.24486,0.8881 -2.52239,0.77095 -3.0256,-0.29654 -6.19618,-13.14437 -8.91459,-1.80337 -8.93324,1.02911 0.0795,2.7975 0.92529,5.44594 -2.84434,7.79931 -2.19507,1.93767 0.45796,2.12877 0.45142,3.58878 -5.43809,4.35099 -8.92494,6.09638 -14.61834,10.69607 -5.18899,4.19217 -7.5894,-5.63537 -12.09203,-1.63776 -1.58916,1.23149 -1.99292,2.01012 -0.81123,4.41524 0.51699,4.43912 -1.51633,5.8901 -3.52079,7.53742 l -39.09899,32.79093 c -6.94891,-0.3222 -8.31517,3.6072 -8.938,8.2555 -2.77285,4.03941 -5.25669,8.03753 -9.03567,12.22067 -3.08544,2.69547 -5.42542,5.75156 -6.3847,9.66197 -1.94381,2.97991 -4.19056,6.04941 -6.46637,8.72807 -1.64114,1.93164 -3.96494,3.84296 -4.98681,5.82736 -0.9045,5.30977 -3.04305,10.36008 -6.94649,14.5183 -4.73153,5.04037 -4.77001,8.2441 -3.41606,11.3869 -1.0761,3.79544 -4.5269,7.99961 -6.83333,11.44406 l -8.76768,8.08398 c -4.33294,-0.69505 -6.89999,3.97122 -9.39419,5.46715 0,0 -25.33167,20.16382 -26.36495,25.11907 -4.07734,19.55349 -6.6171,30.17487 -9.84443,45.82035 -1.52981,7.38913 1.13869,13.94895 1.13869,13.94895 0,0 4.14056,9.34417 5.18128,15.43068 1.25213,7.32286 1.01868,9.68064 -3.19096,13.83221 -2.94176,2.90119 -7.9527,6.04742 -11.95467,5.77369 -6.5085,-0.44519 -5.28379,3.15869 -5.8646,5.45879 l -1.82312,7.3296 -69.173017,13.94895 c -3.56656,1.32258 -7.33547,1.56595 -10.48286,5.1241 h -3.34579 c -4.32014,-3.95057 -7.23994,-1.61375 -10.25416,-0.0548 l -9.167885,-0.004" />
    <path
       id="path9211"
       style="fill:none;fill-rule:evenodd;stroke:#ffffff;stroke-width:3;stroke-linecap:butt;stroke-linejoin:round;stroke-miterlimit:4;stroke-dasharray:none;stroke-opacity:1"
       d="m 42.879933,932.5528 45.72786,29.61559 c -1.55421,8.68805 8.03144,12.92366 14.754227,14.1847 5.8896,3.38876 10.0982,7.18677 15.94686,14.99764 5.83917,7.05399 9.74023,1.9646 13.37175,0.43326 l -9.30233,28.47651" />
  </g>
  <g
     inkscape:label="layer_river"
     id="layer5"
     style="display:inline;opacity:1"
     transform="translate(30.7708,-317.1503)">
    <path
       inkscape:label="vistula"
       id="path3121"
       style="fill:#2c5aa0;fill-rule:evenodd;stroke:none;stroke-width:0.5;stroke-linecap:round;stroke-linejoin:round;stroke-miterlimit:4;stroke-dasharray:none;stroke-opacity:1"
       d="m 125.47052,361.85356 -17.29625,11.07457 5.84837,13.56325 c 8.36083,6.49231 15.4605,15.1286 19.41162,29.11743 3.21396,11.18778 6.97603,23.19773 11.07458,35.7124 -0.11386,15.59566 -2.30851,31.19132 1.61764,46.78698 9.0331,14.57496 27.29108,38.40257 52.60084,56.08243 l 10.61135,17.83105 c 0.95923,4.19832 1.16494,8.58501 8.95921,11.07457 13.02116,14.95238 29.5219,23.19413 47.16028,29.24187 9.1956,3.63018 22.99889,11.26704 39.81871,21.52698 l 21.65142,48.77792 3.48414,22.77132 10.20354,32.97487 27.12649,45.91594 28.2464,27.74867 28.86856,49.02678 15.55418,21.40255 c 13.7608,13.38067 30.59803,18.00536 48.65349,19.16276 13.54857,-1.33837 27.13093,-2.59395 47.16028,11.94561 13.84801,10.93514 22.77077,30.59501 25.01112,62.09229 1.6135,13.24449 4.30174,26.4063 10.20354,39.3209 5.62549,10.7448 13.33502,18.9887 22.27359,25.7578 13.12949,10.5908 29.38044,15.7899 39.19654,32.1038 4.78475,12.0319 8.6211,18.6105 15.00461,39.8354 1.46781,9.0933 8.42255,28.208 25.94983,33.8243 5.7404,1.8394 6.98198,8.5977 9.31668,10.3329 1.52327,13.6181 -0.9015,27.5116 14.06098,40.192 l 32.10383,-5.9728 -4.23074,-4.6041 -4.60403,-18.2917 c -9.00069,-10.3975 -18.00137,-17.9887 -27.00206,-24.7622 -13.05024,-19.7404 -26.76614,-26.5295 -37.04157,-34.8846 2.07023,-13.1879 -2.55594,-23.8532 -16.21799,-41.8482 -8.20852,-10.8119 -22.53448,-18.2227 -34.96376,-26.0493 -12.43328,-10.5965 -21.88621,-22.9316 -30.36177,-35.8368 -2.53856,-6.04101 -3.86723,-14.19936 -5.10177,-22.52242 2.068,-11.93709 4.49872,-23.99026 -1.49321,-33.34817 -6.5475,-23.34821 -15.308,-32.07508 -24.14009,-39.4454 -20.65186,-17.09737 -42.93296,-17.57663 -65.20313,-18.16729 -13.22304,-2.44268 -25.42249,-6.0365 -32.72599,-15.05645 -9.04056,-12.73369 -14.03808,-26.1317 -20.07442,-38.86539 -16.85605,-27.34326 -37.41629,-47.27813 -56.24392,-70.67821 -12.46569,-15.41682 -15.5845,-28.63438 -20.98862,-42.38965 -5.89243,-13.80897 -8.56989,-24.18228 -8.58288,-32.33876 -0.007,-4.483 -5.16836,-3.79534 -5.64877,-4.36656 2.69527,-21.81702 -7.58258,-38.78183 -17.12559,-52.51347 -15.50281,-17.45088 -35.43193,-27.3065 -55.87062,-35.21467 -22.19846,-9.96096 -40.57667,-24.3083 -52.38649,-44.25769 -4.56973,-7.58903 -11.04503,-14.70166 -19.15736,-21.40504 l -14.06637,-15.71675 c -8.21958,-13.70555 -22.93305,-27.95225 -24.01565,-41.06304 4.08489,-20.88278 6.76166,-40.29267 -1.61764,-57.23939 -12.34179,-20.25405 -19.24479,-39.42033 -25.01113,-58.35929 z" />
  </g>
  <g
     inkscape:label="layer_text"
     id="layer11"
     transform="translate(-52.37206,-18.03387)">
    <text
       inkscape:label="bialoleka"
       xml:space="preserve"
       id="text30190"
       style="font-style:normal;font-variant:normal;font-weight:bold;font-stretch:normal;font-size:32px;line-height:100%;font-family:Arial;text-align:center;writing-mode:lr-tb;text-anchor:middle;fill:#000000;fill-opacity:1;stroke:none;stroke-width:1px;stroke-linecap:butt;stroke-linejoin:miter;stroke-opacity:1"
       y="188.5731"
       x="407.05054"><tspan
         id="tspan30194"
         y="188.5731"
         x="407.05054">Biaoka</tspan></text>
    <text
       inkscape:label="bielany"
       xml:space="preserve"
       id="text30196"
       style="font-style:normal;font-variant:normal;font-weight:bold;font-stretch:normal;font-size:32px;line-height:100%;font-family:Arial;text-align:center;writing-mode:lr-tb;text-anchor:middle;fill:#000000;fill-opacity:1;stroke:none;stroke-width:1px;stroke-linecap:butt;stroke-linejoin:miter;stroke-opacity:1"
       y="320.92502"
       x="223.91914"><tspan
         id="tspan30198"
         y="320.92502"
         x="223.91914">Bielany</tspan></text>
    <text
       inkscape:label="bemowo"
       xml:space="preserve"
       id="text30200"
       style="font-style:normal;font-variant:normal;font-weight:bold;font-stretch:normal;font-size:32px;line-height:100%;font-family:Arial;text-align:center;writing-mode:lr-tb;text-anchor:middle;fill:#000000;fill-opacity:1;stroke:none;stroke-width:1px;stroke-linecap:butt;stroke-linejoin:miter;stroke-opacity:1"
       y="465.43716"
       x="189.71121"><tspan
         id="tspan30202"
         y="465.43716"
         x="189.71121">Bemowo</tspan></text>
    <text
       inkscape:label="ursus"
       xml:space="preserve"
       id="text30204"
       style="font-style:normal;font-variant:normal;font-weight:bold;font-stretch:normal;font-size:32px;line-height:100%;font-family:Arial;text-align:center;writing-mode:lr-tb;text-anchor:middle;fill:#000000;fill-opacity:1;stroke:none;stroke-width:1px;stroke-linecap:butt;stroke-linejoin:miter;stroke-opacity:1"
       y="692.00769"
       x="123.50076"><tspan
         id="tspan30206"
         y="692.00769"
         x="123.50076">Ursus</tspan></text>
    <text
       inkscape:label="wlochy"
       xml:space="preserve"
       id="text30208"
       style="font-style:normal;font-variant:normal;font-weight:bold;font-stretch:normal;font-size:32px;line-height:100%;font-family:Arial;text-align:center;writing-mode:lr-tb;text-anchor:middle;fill:#000000;fill-opacity:1;stroke:none;stroke-width:1px;stroke-linecap:butt;stroke-linejoin:miter;stroke-opacity:1"
       y="760.12042"
       x="284.99829"><tspan
         id="tspan30210"
         y="760.12042"
         x="284.99829">Wochy</tspan></text>
    <text
       inkscape:label="ursynow"
       xml:space="preserve"
       id="text30212"
       style="font-style:normal;font-variant:normal;font-weight:bold;font-stretch:normal;font-size:32px;line-height:100%;font-family:Arial;text-align:center;writing-mode:lr-tb;text-anchor:middle;fill:#000000;fill-opacity:1;stroke:none;stroke-width:1px;stroke-linecap:butt;stroke-linejoin:miter;stroke-opacity:1"
       y="916.01855"
       x="474.71588"><tspan
         id="tspan30214"
         y="916.01855"
         x="474.71588">Ursynw</tspan></text>
    <text
       inkscape:label="mokotow"
       xml:space="preserve"
       id="text30216"
       style="font-style:normal;font-variant:normal;font-weight:bold;font-stretch:normal;font-size:32px;line-height:100%;font-family:Arial;text-align:center;writing-mode:lr-tb;text-anchor:middle;fill:#000000;fill-opacity:1;stroke:none;stroke-width:1px;stroke-linecap:butt;stroke-linejoin:miter;stroke-opacity:1"
       y="708.99341"
       x="505.81287"><tspan
         id="tspan30218"
         y="708.99341"
         x="505.81287">Mokotw</tspan></text>
    <text
       inkscape:label="ochota"
       xml:space="preserve"
       id="text30220"
       style="font-style:normal;font-variant:normal;font-weight:bold;font-stretch:normal;font-size:28px;line-height:100%;font-family:Arial;text-align:center;writing-mode:lr-tb;text-anchor:middle;fill:#000000;fill-opacity:1;stroke:none;stroke-width:1px;stroke-linecap:butt;stroke-linejoin:miter;stroke-opacity:1"
       y="638.06616"
       x="329.23441"><tspan
         id="tspan30222"
         y="638.06616"
         x="329.23441">Ochota</tspan></text>
    <text
       inkscape:label="wola"
       xml:space="preserve"
       id="text30224"
       style="font-style:normal;font-variant:normal;font-weight:bold;font-stretch:normal;font-size:32px;line-height:100%;font-family:Arial;text-align:center;writing-mode:lr-tb;text-anchor:middle;fill:#000000;fill-opacity:1;stroke:none;stroke-width:1px;stroke-linecap:butt;stroke-linejoin:miter;stroke-opacity:1"
       y="544.80511"
       x="307.54752"><tspan
         id="tspan30226"
         y="544.80511"
         x="307.54752">Wola</tspan></text>
    <text
       inkscape:label="zoliborz"
       xml:space="preserve"
       id="text30228"
       style="font-style:normal;font-variant:normal;font-weight:bold;font-stretch:normal;font-size:28px;line-height:100%;font-family:Arial;text-align:center;writing-mode:lr-tb;text-anchor:middle;fill:#000000;fill-opacity:1;stroke:none;stroke-width:1px;stroke-linecap:butt;stroke-linejoin:miter;stroke-opacity:1"
       y="435.46362"
       x="360.85422"><tspan
         id="tspan30230"
         y="435.46362"
         x="360.85422">oliborz</tspan></text>
    <text
       inkscape:label="srodmiescie"
       xml:space="preserve"
       id="text30232"
       style="font-style:normal;font-variant:normal;font-weight:bold;font-stretch:normal;font-size:28px;line-height:100%;font-family:Arial;text-align:center;writing-mode:lr-tb;text-anchor:middle;fill:#000000;fill-opacity:1;stroke:none;stroke-width:1px;stroke-linecap:butt;stroke-linejoin:miter;stroke-opacity:1"
       y="538.05688"
       x="456.80307"><tspan
         id="tspan30234"
         y="538.05688"
         x="456.80307">rd-</tspan><tspan
         id="tspan30274"
         y="566.05688"
         x="456.80307">miecie</tspan></text>
    <text
       inkscape:label="pragapn"
       xml:space="preserve"
       id="text30236"
       style="font-style:normal;font-variant:normal;font-weight:bold;font-stretch:normal;font-size:28px;line-height:100%;font-family:Arial;text-align:center;writing-mode:lr-tb;text-anchor:middle;fill:#000000;fill-opacity:1;stroke:none;stroke-width:1px;stroke-linecap:butt;stroke-linejoin:miter;stroke-opacity:1"
       y="439.67783"
       x="489.45255"><tspan
         id="tspan30238"
         y="439.67783"
         x="489.45255">Praga</tspan><tspan
         id="tspan30272"
         y="467.67783"
         x="489.45255">Pnoc</tspan></text>
    <text
       inkscape:label="targowek"
       xml:space="preserve"
       id="text30240"
       style="font-style:normal;font-variant:normal;font-weight:bold;font-stretch:normal;font-size:32px;line-height:100%;font-family:Arial;text-align:center;writing-mode:lr-tb;text-anchor:middle;fill:#000000;fill-opacity:1;stroke:none;stroke-width:1px;stroke-linecap:butt;stroke-linejoin:miter;stroke-opacity:1"
       y="357.04279"
       x="546.03656"><tspan
         id="tspan30264"
         y="357.04279"
         x="546.03656">Targwek</tspan></text>
    <text
       inkscape:label="pragapd"
       xml:space="preserve"
       id="text30244"
       style="font-style:normal;font-variant:normal;font-weight:bold;font-stretch:normal;font-size:28px;line-height:100%;font-family:Arial;text-align:center;writing-mode:lr-tb;text-anchor:middle;fill:#000000;fill-opacity:1;stroke:none;stroke-width:1px;stroke-linecap:butt;stroke-linejoin:miter;stroke-opacity:1"
       y="518.58246"
       x="602.35425"><tspan
         id="tspan30246"
         y="518.58246"
         x="602.35425">Praga</tspan><tspan
         id="tspan30276"
         y="546.58246"
         x="602.35425">Poudnie</tspan></text>
    <text
       inkscape:label="rembertow"
       xml:space="preserve"
       id="text30248"
       style="font-style:normal;font-variant:normal;font-weight:bold;font-stretch:normal;font-size:28px;line-height:100%;font-family:Arial;text-align:center;writing-mode:lr-tb;text-anchor:middle;fill:#000000;fill-opacity:1;stroke:none;stroke-width:1px;stroke-linecap:butt;stroke-linejoin:miter;stroke-opacity:1"
       y="429.26016"
       x="752.86139"><tspan
         id="tspan30250"
         y="429.26016"
         x="752.86139">Rembertw</tspan></text>
    <text
       inkscape:label="wawer"
       xml:space="preserve"
       id="text30252"
       style="font-style:normal;font-variant:normal;font-weight:bold;font-stretch:normal;font-size:32px;line-height:100%;font-family:Arial;text-align:center;writing-mode:lr-tb;text-anchor:middle;fill:#000000;fill-opacity:1;stroke:none;stroke-width:1px;stroke-linecap:butt;stroke-linejoin:miter;stroke-opacity:1"
       y="696.30811"
       x="811.9848"><tspan
         id="tspan30254"
         y="696.30811"
         x="811.9848">Wawer</tspan></text>
    <text
       inkscape:label="wesola"
       xml:space="preserve"
       id="text30256"
       style="font-style:normal;font-variant:normal;font-weight:bold;font-stretch:normal;font-size:32px;line-height:100%;font-family:Arial;text-align:center;writing-mode:lr-tb;text-anchor:middle;fill:#000000;fill-opacity:1;stroke:none;stroke-width:1px;stroke-linecap:butt;stroke-linejoin:miter;stroke-opacity:1"
       y="518.48798"
       x="901.4776"><tspan
         id="tspan30258"
         y="518.48798"
         x="901.4776">Wesoa</tspan></text>
    <text
       inkscape:label="wilanow"
       xml:space="preserve"
       id="text30260"
       style="font-style:normal;font-variant:normal;font-weight:bold;font-stretch:normal;font-size:32px;line-height:100%;font-family:Arial;text-align:center;writing-mode:lr-tb;text-anchor:middle;fill:#000000;fill-opacity:1;stroke:none;stroke-width:1px;stroke-linecap:butt;stroke-linejoin:miter;stroke-opacity:1"
       y="862.15051"
       x="652.06073"><tspan
         id="tspan30262"
         y="862.15051"
         x="652.06073">Wilanw</tspan></text>
  </g>
</svg>
